<svg width="15" height="20" fill="none" xmlns="http://www.w3.org/2000/svg"><mask id="a" fill="#fff"><path fill-rule="evenodd" clip-rule="evenodd" d="M7.764 19.757C9.097 18.605 15 13.505 15 7.777 15 3.483 11.642 0 7.5 0 3.358 0 0 3.333 0 7.778c0 5.52 5.903 10.827 7.236 11.98.156.134.25.214.264.236-.003.004-.003.006 0 .006s.003-.002 0-.006c.015-.022.108-.102.264-.237zM7.5 11.222c2.367 0 3.286-1.99 3.286-3.445 0-1.454-.919-3.444-3.286-3.444s-3.286 1.99-3.286 3.444c0 1.455.92 3.445 3.286 3.445z"/></mask><path d="M0 7.778h-1 1zm7.764 11.98l.653.756-.653-.757zm-.528 0l-.653.756.653-.757zM1 7.777C1 3.863 3.932 1 7.5 1v-2C2.784-1-1 2.803-1 7.778h2zM7.5 1C11.056 1 14 4 14 7.778h2C16 2.965 12.228-1 7.5-1v2zm2.286 6.777c0 .542-.177 1.178-.546 1.656-.343.443-.876.789-1.74.789v2c1.503 0 2.613-.65 3.321-1.565.682-.88.965-1.966.965-2.88h-2zM7.5 10.222c-.863 0-1.397-.346-1.74-.789-.37-.478-.546-1.114-.546-1.656h-2c0 .914.283 2 .965 2.88.708.916 1.818 1.565 3.321 1.565v-2zM5.214 7.777c0-.54.177-1.177.546-1.655.343-.443.877-.789 1.74-.789v-2c-1.503 0-2.613.65-3.321 1.565-.682.88-.965 1.966-.965 2.88h2zM7.5 5.333c.864 0 1.397.346 1.74.789.37.478.546 1.114.546 1.655h2c0-.913-.283-1.999-.965-2.88-.708-.915-1.818-1.564-3.321-1.564v2zm.917 15.18c.675-.582 2.55-2.2 4.258-4.42C14.367 13.893 16 10.97 16 7.778h-2c0 2.536-1.318 5.025-2.91 7.096C9.511 16.924 7.768 18.43 7.11 19l1.307 1.514zM-1 7.779c0 3.092 1.638 6.017 3.322 8.233 1.704 2.242 3.573 3.91 4.26 4.503L7.89 19c-.646-.558-2.395-2.12-3.976-4.2C2.314 12.695 1 10.206 1 7.778h-2zm7.583 12.736l.174.151.025.023-.021-.022a.828.828 0 0 1-.091-.115l1.66-1.114a1.084 1.084 0 0 0-.163-.191A19.268 19.268 0 0 0 7.89 19l-1.307 1.513zm.087-1.077a1.02 1.02 0 0 0-.172.558A1.001 1.001 0 0 0 7.5 21v-2a.998.998 0 0 1 .83 1.551l-1.66-1.114zM7.5 21a1.003 1.003 0 0 0 .83-1.563L6.67 20.55a.975.975 0 0 1-.168-.547A.999.999 0 0 1 7.5 19v2zm.83-.449a.973.973 0 0 1-.112.137l.025-.023.174-.151L7.11 19a20.634 20.634 0 0 0-.277.246 1.085 1.085 0 0 0-.163.191l1.66 1.114z" fill="#E09B3D" mask="url(#a)"/></svg>