<svg width="35" height="35" fill="none" xmlns="http://www.w3.org/2000/svg"><path d="M18.134 0H8.647a.661.661 0 0 0-.661.661v33.666c0 .365.296.662.66.662h9.488a.662.662 0 0 0 .662-.662V.661A.662.662 0 0 0 18.134 0zm-.66 4.463H15.84a.662.662 0 0 0 0 1.322h1.633v2.208H15.84a.662.662 0 0 0 0 1.323h1.633v2.228h-3.12a.662.662 0 0 0 0 1.322h3.12v2.209H15.84a.661.661 0 0 0 0 1.322h1.633v2.215H15.84a.661.661 0 0 0 0 1.322h1.633v2.188h-3.12a.661.661 0 0 0 0 1.323h3.12v2.208H15.84a.661.661 0 0 0 0 1.323h1.633v2.208H15.84a.662.662 0 0 0 0 1.322h1.633v3.14H9.308V1.323h8.165v3.14zm8.878 2.023a.662.662 0 0 0 .503-1.091l-2.043-3.557a.661.661 0 0 0-1.144 0L21.56 5.494a.661.661 0 0 0 .575.992h1.448v22.016h-1.448a.661.661 0 0 0-.575.992l2.11 3.657a.661.661 0 0 0 1.143 0l2.109-3.657a.661.661 0 0 0-.575-.992h-1.448V6.486h1.454zM25.21 29.825l-.965 1.672-.966-1.672h1.93zM23.278 5.164l.966-1.673.965 1.673h-1.931z" fill="#E09B3D"/></svg>