<svg width="35" height="35" fill="none" xmlns="http://www.w3.org/2000/svg"><g clip-path="url(#clip0)" fill="#E09B3D"><path d="M12.318 6.417c-5.475.006-9.911 4.442-9.917 9.916v1.371a3.5 3.5 0 0 0 0 6.596v7.783c0 .323.261.584.583.584h.712l.472 1.891c.065.26.299.442.566.442h1.75a.583.583 0 0 0 .566-.442l.472-1.891h9.59l.473 1.891c.065.26.298.442.566.442h1.75a.583.583 0 0 0 .566-.442l.472-1.891h.712a.583.583 0 0 0 .583-.584V24.3a3.5 3.5 0 0 0 0-6.596v-1.37c-.006-5.475-4.442-9.911-9.916-9.917zm-8.75 9.916a8.75 8.75 0 1 1 17.5 0V17.5c-.398.001-.793.07-1.167.204v-1.37a7.583 7.583 0 0 0-15.167 0v1.37a3.487 3.487 0 0 0-1.166-.204v-1.167zm3.5 9.334h10.5V28h-10.5v-2.333zM17.568 21v3.5h-10.5V21a3.494 3.494 0 0 0-1.167-2.602v-2.065a6.417 6.417 0 1 1 12.833 0v2.065A3.49 3.49 0 0 0 17.568 21zM6.028 33.833H5.19l-.292-1.166H6.32l-.291 1.166zm13.417 0h-.839l-.291-1.166h1.422l-.292 1.166zM23.401 21a2.34 2.34 0 0 1-1.867 2.287.583.583 0 0 0-.466.57V31.5h-17.5v-7.642a.584.584 0 0 0-.467-.57A2.334 2.334 0 1 1 5.9 21v7.583c0 .323.261.584.583.584H18.15a.583.583 0 0 0 .583-.584V21a2.333 2.333 0 1 1 4.667 0z"/><path d="M12.732 13.002a.61.61 0 0 0-.829 0 .599.599 0 0 0-.122.193.55.55 0 0 0 0 .443c.03.07.07.136.122.193.23.225.599.225.829 0a.684.684 0 0 0 .122-.193.55.55 0 0 0 0-.443.603.603 0 0 0-.122-.193zm-1.75 2.334a.61.61 0 0 0-.829 0 .598.598 0 0 0-.122.192.55.55 0 0 0 0 .444c.03.07.07.135.122.192a.669.669 0 0 0 .193.122.576.576 0 0 0 .636-.122.685.685 0 0 0 .122-.193.55.55 0 0 0 0-.443.603.603 0 0 0-.122-.192zm3.5 0a.583.583 0 0 0-.998.414.583.583 0 0 0 .04.222c.035.07.078.134.13.192a.583.583 0 0 0 .95-.636.602.602 0 0 0-.122-.192zm-1.75 2.334a.61.61 0 0 0-.829 0 .671.671 0 0 0-.122.192.55.55 0 0 0 0 .443c.03.07.07.136.122.192a.669.669 0 0 0 .193.123.578.578 0 0 0 .636-.123.683.683 0 0 0 .122-.192.55.55 0 0 0 0-.443.677.677 0 0 0-.122-.193zm-3.5 0a.684.684 0 0 0-.193-.123.583.583 0 0 0-.636.122.598.598 0 0 0-.123.193.55.55 0 0 0 0 .443.68.68 0 0 0 .123.192.67.67 0 0 0 .192.123.549.549 0 0 0 .444 0 .525.525 0 0 0 .315-.315.55.55 0 0 0 0-.443.678.678 0 0 0-.122-.193zm7 0a.61.61 0 0 0-.829 0 .673.673 0 0 0-.123.192.55.55 0 0 0 0 .443.68.68 0 0 0 .123.192.67.67 0 0 0 .192.123.551.551 0 0 0 .444 0 .525.525 0 0 0 .315-.315.55.55 0 0 0 0-.443.677.677 0 0 0-.122-.193zm-5.25 2.333a.589.589 0 0 0-.094-.07.328.328 0 0 0-.099-.053.356.356 0 0 0-.111-.035.5.5 0 0 0-.332.035.453.453 0 0 0-.106.053.931.931 0 0 0-.087.07.598.598 0 0 0-.122.192.577.577 0 0 0 .122.636.671.671 0 0 0 .193.122c.07.033.145.049.222.047a.578.578 0 0 0 .537-.805.602.602 0 0 0-.123-.192zm2.864-.123a.526.526 0 0 0-.315.315.577.577 0 0 0 .758.758.525.525 0 0 0 .315-.315.497.497 0 0 0 .047-.221.614.614 0 0 0-.17-.414.584.584 0 0 0-.635-.123zm-1.114 2.456a.584.584 0 0 0-.094-.07.328.328 0 0 0-.099-.053.358.358 0 0 0-.111-.035.5.5 0 0 0-.332.035.455.455 0 0 0-.106.053.93.93 0 0 0-.087.07.672.672 0 0 0-.122.192.583.583 0 1 0 1.074 0 .68.68 0 0 0-.123-.192zm-3.5 0a.61.61 0 0 0-.829 0 .673.673 0 0 0-.122.192.577.577 0 0 0 .122.636.67.67 0 0 0 .193.122.577.577 0 0 0 .758-.758.678.678 0 0 0-.122-.192zm7 0a.6.6 0 0 0-.828 0 .673.673 0 0 0-.123.192.578.578 0 0 0 .759.758.683.683 0 0 0 .192-.122.578.578 0 0 0 .122-.636.68.68 0 0 0-.122-.192zm-7-9.334a.61.61 0 0 0-.829 0 .599.599 0 0 0-.123.193.55.55 0 0 0 0 .443.68.68 0 0 0 .123.193c.23.225.598.225.829 0a.685.685 0 0 0 .122-.193.55.55 0 0 0 0-.443.603.603 0 0 0-.122-.193zm6.808-.122a.565.565 0 0 0-.76.315.587.587 0 0 0-.046.222.492.492 0 0 0 .047.221c.03.07.07.136.122.193.23.225.599.225.829 0a.688.688 0 0 0 .122-.193.587.587 0 0 0 .047-.221.56.56 0 0 0-.362-.537zm18.444-2.38a.583.583 0 0 0 .579-.656L33.896.511A.583.583 0 0 0 33.317 0h-9.333a.583.583 0 0 0-.579.511L22.24 9.844a.582.582 0 0 0 .578.656h5.25v21h-1.75a1.75 1.75 0 0 0-1.75 1.75v1.167c0 .322.262.583.584.583h7a.583.583 0 0 0 .583-.583V33.25a1.75 1.75 0 0 0-1.75-1.75h-1.75v-21h5.25zm-2.917 22.75v.583h-5.833v-.583c0-.322.261-.583.583-.583h4.667c.322 0 .583.26.583.583zM24.5 1.167h8.303l1.021 8.166H23.478L24.5 1.167z"/></g><defs><clipPath id="clip0"><path fill="#fff" d="M0 0h35v35H0z"/></clipPath></defs></svg>