<svg width="35" height="35" fill="none" xmlns="http://www.w3.org/2000/svg"><path d="M7.123 19.553a.694.694 0 0 1-.38-.115.71.71 0 0 1-.189-.19.684.684 0 1 1 .569.305zm10.803 6.569h-.001a15.34 15.34 0 0 1-2.722-.26c-2.938-.532-5.513-2.175-7.448-4.75a.683.683 0 1 1 1.093-.82c1.749 2.326 3.969 3.748 6.6 4.225.867.158 1.7.237 2.477.238a.684.684 0 0 1 .001 1.367z" fill="#E09B3D"/><path d="M29.166 22.56l.035-.107c1.064-3.403-.757-6.778-2.163-8.724.261-.343.49-.706.686-1.086l1.487.446a.605.605 0 0 0 .064.016c.791.156.798.156.879.156.39 0 .764-.185 1.002-.497.266-.35.33-.82.167-1.23l-.413-1.032.723-.805a.687.687 0 0 0 .082-.112 1.26 1.26 0 0 0-1.347-1.868l-1.931.33c-.587-3.477-3.62-6.133-7.26-6.133-4.06 0-7.362 3.302-7.362 7.361a7.35 7.35 0 0 0 .954 3.625l-.165-.012a61.367 61.367 0 0 0-6.789-.09.7.7 0 0 0-.107.013l-2.063-.541-1.625-.565a.684.684 0 0 0-.908.665c.008.283.208 6.375 2.414 10.284-1.54.479-2.784 1.042-3.703 1.677C.613 25.167 0 26.105 0 27.121c0 1.774 1.868 3.305 5.402 4.428 3.241 1.029 7.538 1.596 12.098 1.596 4.56 0 8.857-.567 12.098-1.596C33.132 30.426 35 28.895 35 27.12c0-1.833-2.066-3.443-5.834-4.56zm.443-12.656a.684.684 0 0 0-.127.71l.494 1.235-.404-.08-1.336-.4c.186-.63.29-1.286.302-1.953l1.783-.304-.712.792zm-15.092 4.348a41.063 41.063 0 0 1 1.63.151c4.42.507 5.711 1.525 6.083 2.127.753 1.218.751 2.783-.005 3.892-1.05 1.54-3.292 2.087-6.314 1.539-2.453-.445-4.436-2.006-5.894-4.64a15.326 15.326 0 0 1-1.302-3.188 61.044 61.044 0 0 1 5.802.12zm-9.296-.682l.051.015 2.022.53c.19.757.638 2.251 1.507 3.832 1.644 2.99 4.018 4.843 6.866 5.359.887.16 1.68.23 2.388.23 3.16 0 4.65-1.391 5.3-2.344 1.072-1.573 1.087-3.685.038-5.38-.856-1.385-3.106-2.287-6.855-2.74a5.983 5.983 0 0 1-1.356-3.797 6.001 6.001 0 0 1 5.995-5.994 6.001 6.001 0 0 1 5.995 5.994c0 1.47-.537 2.883-1.512 3.98a.683.683 0 0 0-.03.872c1.014 1.315 3.267 4.72 2.266 7.918-1.152 3.68-5.304 6.256-9.874 6.12-4.523-.133-8.01-1.837-10.661-5.21-2.048-2.606-2.652-7.514-2.82-9.622l.68.237zm23.963 16.676c-3.111.988-7.26 1.532-11.684 1.532-4.424 0-8.573-.544-11.684-1.532-2.786-.885-4.449-2.053-4.449-3.125 0-1.136 1.892-2.384 4.952-3.278 2.873 3.632 6.797 5.546 11.663 5.69.126.002.252.004.378.004 4.445 0 8.5-2.3 10.272-5.708 3.095.896 5 2.145 5 3.292 0 1.072-1.662 2.24-4.448 3.125z" fill="#E09B3D"/><path d="M16.276 20.64a.712.712 0 0 1-.123-.012c-2.004-.363-3.652-1.665-4.899-3.87a11.13 11.13 0 0 1-.15-.275.684.684 0 0 1 1.206-.641l.134.244c1.037 1.834 2.367 2.91 3.953 3.197a.684.684 0 0 1-.121 1.356zm7.637-11.135a.684.684 0 0 1-.684-.683c0-.101-.144-.214-.337-.214-.193 0-.337.113-.337.214a.684.684 0 1 1-1.367 0c0-.872.765-1.581 1.704-1.581.94 0 1.704.71 1.704 1.58a.683.683 0 0 1-.683.684z" fill="#E09B3D"/></svg>