<svg width="38" height="38" fill="none" xmlns="http://www.w3.org/2000/svg"><path d="M21.022 16.132a2.689 2.689 0 0 0-.924-.5 5.452 5.452 0 0 0-1.194-.116h-1.77c-.309 0-.501.077-.655.192-.116.116-.193.347-.193.655v4.966c0 .231 0 .385.077.54a.478.478 0 0 0 .231.307c.116.077.308.116.578.116h1.77c.309 0 .578-.039.848-.077.23-.039.462-.116.693-.193.23-.115.423-.23.577-.385a3.45 3.45 0 0 0 .578-.731c.154-.27.27-.578.346-.924.077-.347.116-.693.116-1.117 0-1.193-.347-2.117-1.078-2.733zm-1.001 4.774a1.56 1.56 0 0 1-.347.192c-.154.039-.27.077-.385.077H17.71v-4.62h.925c.423 0 .77.039 1.078.154.308.077.539.308.731.655.193.346.308.847.308 1.501-.038 1.001-.27 1.656-.731 2.04z" fill="#000"/><path d="M33.265 7.585l-.039-.039v-.038L25.911.193l-.039-.039s-.038 0-.038-.038c0 0-.038 0-.038-.039C25.68 0 25.564 0 25.41 0H7.277c-.693 0-1.348.27-1.81.732L5.43.77a2.689 2.689 0 0 0-.77 1.848v32.764c0 .732.308 1.386.77 1.848.462.462 1.155.77 1.848.77h23.447c.731 0 1.386-.308 1.848-.77.462-.462.77-1.155.77-1.848V7.97c0-.154-.039-.27-.077-.385zm-7.123-4.813l4.35 4.35h-3.195c-.308 0-.616-.115-.809-.346a1.2 1.2 0 0 1-.346-.808V2.772zm5.544 32.61c0 .27-.116.5-.308.693a.964.964 0 0 1-.693.308H7.277c-.27 0-.5-.116-.693-.27-.193-.192-.27-.423-.27-.693V2.58c0-.27.116-.501.308-.693l.039-.039c.192-.154.423-.27.654-.27h17.248V5.93c0 .77.309 1.463.848 2.002.5.5 1.231.809 2.002.809h4.273v26.642z" fill="#000"/><path d="M14.515 16.055c-.193-.193-.424-.308-.732-.385-.27-.077-.693-.116-1.193-.116h-1.771c-.308 0-.54.077-.655.193-.154.115-.192.346-.192.654v5.236c0 .27.077.462.192.616.116.154.308.193.5.193.193 0 .347-.077.501-.231a.98.98 0 0 0 .193-.616v-1.925h1.27c.847 0 1.463-.193 1.887-.54.423-.346.654-.885.654-1.578 0-.308-.038-.616-.154-.885-.154-.231-.308-.462-.5-.616zm-.924 2.156a.978.978 0 0 1-.5.346 2.56 2.56 0 0 1-.81.116h-.923v-2.08h.924c.616 0 1 .116 1.232.309.192.192.27.423.27.731-.04.231-.078.424-.193.578zm10.549-2.734c-.231.039-.385.077-.5.154a.465.465 0 0 0-.27.27c-.077.115-.077.27-.077.5V21.6c0 .27.077.5.192.616.116.154.309.192.501.192s.346-.077.5-.192a.98.98 0 0 0 .193-.616v-2.233h2.272c.192 0 .346-.039.462-.154.115-.077.154-.231.154-.385a.494.494 0 0 0-.154-.385.826.826 0 0 0-.462-.154h-2.272v-1.733h2.695c.231 0 .385-.038.5-.154a.494.494 0 0 0 .155-.385.494.494 0 0 0-.154-.385c-.116-.115-.27-.154-.501-.154H24.14z" fill="#000"/></svg>