<svg width="35" height="31" fill="none" xmlns="http://www.w3.org/2000/svg"><path d="M34.417 17.833h-.584v-1.75a2.917 2.917 0 0 0-1.75-2.67V4.418a.583.583 0 0 0-.35-.535c.228-.364.35-.786.35-1.215a2.333 2.333 0 1 0-4.666 0c.002.41.114.813.324 1.166H7.259a2.31 2.31 0 0 0 .324-1.166 2.333 2.333 0 0 0-4.666 0c0 .43.122.85.35 1.215a.583.583 0 0 0-.35.535v8.997a2.917 2.917 0 0 0-1.75 2.67v1.75H.583a.583.583 0 0 0-.583.583v8.166c0 .322.261.584.583.584h.584v2.916c0 .322.26.584.583.584h2.333a.583.583 0 0 0 .584-.584v-2.916h25.666v2.916c0 .322.262.584.584.584h2.333a.583.583 0 0 0 .583-.584v-2.916h.584a.583.583 0 0 0 .583-.584v-8.166a.583.583 0 0 0-.583-.584zM29.75 1.5a1.167 1.167 0 1 1 0 2.333 1.167 1.167 0 0 1 0-2.333zm-24.5 0a1.167 1.167 0 1 1 0 2.333 1.167 1.167 0 0 1 0-2.333zM4.083 5h26.834v8.167h-2.349a2.886 2.886 0 0 0 .599-1.75V10.25a2.92 2.92 0 0 0-2.917-2.917h-4.667a2.92 2.92 0 0 0-2.916 2.917v1.167c.002.633.212 1.248.598 1.75h-3.53a2.886 2.886 0 0 0 .598-1.75V10.25a2.92 2.92 0 0 0-2.916-2.917H8.75a2.92 2.92 0 0 0-2.917 2.917v1.167c.002.633.213 1.248.599 1.75H4.083V5zM28 10.25v1.167a1.75 1.75 0 0 1-1.75 1.75h-4.667a1.75 1.75 0 0 1-1.75-1.75V10.25c0-.967.784-1.75 1.75-1.75h4.667c.966 0 1.75.783 1.75 1.75zm-12.833 0v1.167a1.75 1.75 0 0 1-1.75 1.75H8.75A1.75 1.75 0 0 1 7 11.417V10.25c0-.967.783-1.75 1.75-1.75h4.667c.966 0 1.75.783 1.75 1.75zM2.333 16.083c0-.966.784-1.75 1.75-1.75h26.834c.966 0 1.75.784 1.75 1.75v1.75H2.333v-1.75zM3.5 29.5H2.333v-2.333H3.5V29.5zm29.167 0H31.5v-2.333h1.167V29.5zm1.166-3.5H1.167v-7h32.666v7z" fill="#E09B3D"/></svg>