<svg width="35" height="35" fill="none" xmlns="http://www.w3.org/2000/svg"><path d="M31.914 20.42a.58.58 0 0 0 .58-.58V18.1a1.749 1.749 0 0 0 1.741-1.74c0-.962-.78-1.742-1.74-1.742V12.51a4.693 4.693 0 0 0 2.503-4.275c0-2.559-1.822-4.642-4.061-4.642-2.24 0-4.062 2.083-4.062 4.642a4.784 4.784 0 0 0 2.138 4.087v2.296h-3.482V.692a.58.58 0 0 0-.58-.58h-2.32a.58.58 0 0 0-.581.58v13.926a1.75 1.75 0 0 0-1.74 1.741c0 .962.779 1.74 1.74 1.74v5.223a1.74 1.74 0 0 0 0 3.482v4.062c0 .32.26.58.58.58h2.321c.32 0 .58-.26.58-.58v-4.062h4.643v.58a6.39 6.39 0 0 1-6.383 6.383h-4.642a6.373 6.373 0 0 1-5.942-4.062h1.3a2.905 2.905 0 0 0 2.9-2.901V5.914a2.905 2.905 0 0 0-2.9-2.9H2.9A2.905 2.905 0 0 0 0 5.913v20.89a2.905 2.905 0 0 0 2.901 2.901h9.075a7.532 7.532 0 0 0 7.173 5.222h4.642a7.552 7.552 0 0 0 7.543-7.543v-.58h1.16a1.74 1.74 0 1 0 0-3.482h-1.16V20.42h.58zM1.161 26.805V5.914c0-.96.779-1.74 1.74-1.74h11.605c.962 0 1.741.78 1.741 1.74v20.89c0 .961-.78 1.74-1.74 1.74H2.9a1.74 1.74 0 0 1-1.74-1.74zm30.173-7.544h-1.16v-6.468c.076.02.153.035.232.043a3.29 3.29 0 0 0 .928.017v6.408zm1.74-2.9a.566.566 0 0 1-.177.413.556.556 0 0 1-.402.166v-1.16c.32 0 .58.26.58.58zm-5.122-9.028c.332-1.483 1.462-2.578 2.802-2.578s2.47 1.095 2.802 2.578a3.478 3.478 0 0 0-5.604 0zm.48 2.064a2.322 2.322 0 1 1 3.247 2.133l-.058.031a.901.901 0 0 1-.12.04l-.028.008-.022.005-.217.058a.833.833 0 0 1-.129.022 2.56 2.56 0 0 1-.249.024 2.693 2.693 0 0 1-.408-.05l-.204-.051h-.01l-.251-.094a.573.573 0 0 0-.24-.034 2.335 2.335 0 0 1-1.31-2.092zM23.21 1.272h1.16v13.346h-1.16V1.272zM21.47 16.36a.57.57 0 0 1 .178-.414.558.558 0 0 1 .402-.166h6.963v1.16H22.05a.58.58 0 0 1-.58-.58zm1.74 1.74h1.16v5.223h-1.16V18.1zm1.16 12.186h-1.16v-3.481h1.16v3.481zm-2.32-4.642a.58.58 0 0 1 0-1.16h8.123v1.16H22.05zm10.445-1.16a.58.58 0 0 1 0 1.16h-1.161v-1.16h1.16zm-2.321-1.16H25.53V18.1h3.482v1.74c0 .321.26.58.58.58h.58v2.902z" fill="#E09B3D"/><path d="M12.185 5.334H5.222a.58.58 0 0 0-.58.58V16.36c0 .32.26.58.58.58h6.963c.32 0 .58-.26.58-.58V5.914a.58.58 0 0 0-.58-.58zm-.58 10.445H5.803V6.495h5.802v9.284zm0 5.222a2.901 2.901 0 1 0-5.803 0 2.901 2.901 0 0 0 5.803 0zm-2.901 1.74a1.737 1.737 0 0 1-.58-3.374v1.054a.58.58 0 0 0 1.16 0v-1.054a1.737 1.737 0 0 1-.58 3.375zm-1.161 3.482h-2.32a.58.58 0 0 0 0 1.16h2.32a.58.58 0 0 0 0-1.16zm4.642 0h-2.32a.58.58 0 0 0 0 1.16h2.32a.58.58 0 0 0 0-1.16z" fill="#E09B3D"/><path d="M8.704 15.198a2.321 2.321 0 1 0 0-4.641 2.321 2.321 0 0 0 0 4.641zm0-3.481a1.157 1.157 0 0 1 .58 2.16v-.42a.58.58 0 0 0-1.16 0v.42a1.156 1.156 0 0 1 .58-2.16z" fill="#E09B3D"/></svg>