<svg width="23" height="19" fill="none" xmlns="http://www.w3.org/2000/svg"><path fill-rule="evenodd" clip-rule="evenodd" d="M11.57 18.438c.263 0 .527-.083.75-.247 2.071-1.527 7.805-5.891 9.163-8.405 1.665-3.081.677-7.022-2.208-8.801a5.697 5.697 0 0 0-3.002-.863c-1.79 0-3.536.854-4.703 2.404C10.404.976 8.657.122 6.867.122c-1.02 0-2.054.278-3.002.863C.98 2.764-.008 6.705 1.657 9.786c1.358 2.514 7.091 6.878 9.162 8.405.224.164.487.247.75.247zm4.702-17.432a4.82 4.82 0 0 1 2.53.728c2.49 1.535 3.338 4.96 1.893 7.636-1.29 2.386-7.145 6.813-8.909 8.113a.365.365 0 0 1-.433 0c-1.764-1.3-7.619-5.727-8.908-8.113C1 6.695 1.848 3.27 4.337 1.734a4.82 4.82 0 0 1 2.53-.728c1.554 0 3.007.746 3.986 2.047l.717.953.716-.953c.98-1.301 2.433-2.047 3.986-2.047z" fill="#262626"/></svg>