<svg width="20" height="20" fill="none" xmlns="http://www.w3.org/2000/svg"><path fill-rule="evenodd" clip-rule="evenodd" d="M19.217 19.284a.223.223 0 0 1-.064-.01l-3.948-1.06a.927.927 0 0 0-.24-.03.998.998 0 0 0-.474.122 9.262 9.262 0 0 1-4.438 1.132 9.73 9.73 0 0 1-2.306-.281c-2.899-.707-5.985-3.705-6.732-6.6C-.598 6.297 4.072.675 10.053.675c.834 0 1.695.11 2.567.342 3.196.853 5.702 3.433 6.497 6.65.587 2.377.267 4.653-.68 6.562a.97.97 0 0 0-.076.686l1.086 4.065a.24.24 0 0 1-.23.303zm-.965-11.402a8.24 8.24 0 0 0-5.861-6.001 9.11 9.11 0 0 0-2.338-.312h-.001a8.41 8.41 0 0 0-6.699 3.295c-1.62 2.097-2.158 4.82-1.475 7.47.656 2.542 3.497 5.325 6.08 5.955.697.17 1.401.255 2.095.255a8.324 8.324 0 0 0 4.013-1.023 1.89 1.89 0 0 1 .9-.231c.16 0 .317.02.47.061l2.858.768-.794-2.973a1.872 1.872 0 0 1 .138-1.315c.91-1.833 1.122-3.89.614-5.949z" fill="#262626"/></svg>