<svg width="125" height="60" fill="none" xmlns="http://www.w3.org/2000/svg"><path d="M29.703 12.737c-.064 1.46-.474 2.564-1.23 3.314s-1.823 1.125-3.2 1.125c-1.447 0-2.557-.475-3.33-1.424-.768-.955-1.152-2.315-1.152-4.078V9.52c0-1.758.398-3.112 1.195-4.061.797-.955 1.905-1.433 3.323-1.433 1.394 0 2.452.39 3.172 1.17.727.779 1.14 1.898 1.24 3.357h-2.593c-.023-.903-.164-1.524-.422-1.864-.252-.345-.718-.518-1.397-.518-.692 0-1.181.243-1.468.73-.287.48-.44 1.274-.457 2.381V11.7c0 1.272.14 2.145.422 2.62.287.474.776.711 1.467.711.68 0 1.149-.164 1.407-.492.258-.334.404-.934.44-1.802h2.583zm4.175 2.118h4.535V17h-7.12V4.203h2.585v10.652zm12.639-3.392H42.49v3.393h4.764V17h-7.348V4.203h7.33v2.153H42.49V9.38h4.026v2.083zm6.398 2.021l2.153-9.28h2.883L54.26 17h-2.69L47.905 4.203h2.865l2.145 9.281zm12.85-2.021h-4.026v3.393h4.764V17h-7.348V4.203h7.33v2.153H61.74V9.38h4.026v2.083zm6.108.861H70.59V17h-2.584V4.203h4.122c1.295 0 2.294.337 2.997 1.01.709.669 1.064 1.621 1.064 2.857 0 1.7-.619 2.889-1.855 3.569l2.241 5.238V17h-2.777l-1.925-4.676zm-1.283-2.153h1.468c.515 0 .902-.17 1.16-.51.258-.346.386-.806.386-1.38 0-1.283-.5-1.925-1.502-1.925H70.59v3.815z" fill="#D9C892"/><path d="M29.73 36.55a4.763 4.763 0 0 1-1.837 1.222 6.74 6.74 0 0 1-2.373.404c-1.471 0-2.614-.454-3.428-1.363-.815-.914-1.234-2.24-1.257-3.981v-2.303c0-1.763.384-3.12 1.151-4.069.774-.955 1.899-1.433 3.375-1.433 1.389 0 2.435.343 3.138 1.029.709.685 1.12 1.76 1.23 3.225h-2.513c-.07-.814-.24-1.368-.51-1.66-.27-.3-.691-.45-1.266-.45-.697 0-1.204.256-1.52.765-.317.51-.48 1.322-.492 2.435v2.32c0 1.166.173 2.016.518 2.55.352.527.926.79 1.723.79.51 0 .923-.102 1.24-.307l.228-.159V33.22h-1.81v-1.951h4.402v5.282zm5.704-3.226H34.15V38h-2.584V25.203h4.122c1.295 0 2.294.337 2.997 1.01.71.669 1.064 1.621 1.064 2.857 0 1.7-.618 2.889-1.855 3.569l2.242 5.238V38h-2.778l-1.924-4.676zm-1.284-2.153h1.468c.516 0 .902-.17 1.16-.51.258-.346.387-.806.387-1.38 0-1.283-.5-1.925-1.503-1.925H34.15v3.815zm13.483 4.21h-3.525L43.423 38H40.69l3.998-12.797h2.365L51.078 38h-2.76l-.685-2.62zm-2.962-2.154h2.39l-1.195-4.561-1.195 4.561zM52.282 38V25.203h3.384c1.494 0 2.684.475 3.568 1.424.891.95 1.345 2.25 1.363 3.902v2.074c0 1.682-.446 3.003-1.336 3.964-.885.956-2.107 1.433-3.665 1.433h-3.314zm2.584-10.644v8.5h.774c.861 0 1.467-.226 1.819-.677.351-.457.536-1.242.554-2.356V30.6c0-1.196-.167-2.028-.501-2.497-.334-.474-.903-.723-1.705-.747h-.94zM23.612 54.5V59h-2.584V46.203h4.36c1.265 0 2.273.393 3.023 1.178.756.785 1.134 1.804 1.134 3.059 0 1.253-.372 2.244-1.116 2.97-.744.727-1.776 1.09-3.094 1.09h-1.723zm0-2.153h1.776c.492 0 .873-.162 1.142-.484.27-.322.405-.79.405-1.406 0-.639-.138-1.145-.413-1.52a1.322 1.322 0 0 0-1.108-.58h-1.802v3.99zm11.54 1.977H33.87V59h-2.584V46.203h4.122c1.295 0 2.294.337 2.997 1.01.71.669 1.064 1.621 1.064 2.857 0 1.7-.618 2.889-1.855 3.569l2.242 5.238V59h-2.778l-1.925-4.676zm-1.283-2.153h1.468c.515 0 .902-.17 1.16-.51.258-.346.387-.806.387-1.38 0-1.283-.501-1.925-1.503-1.925h-1.512v3.815zm13.983 1.292h-4.025v3.392h4.764V59h-7.348V46.203h7.33v2.153h-4.746v3.024h4.026v2.083zm5.608-7.26l2.417 9.255 2.408-9.255h3.375V59h-2.593v-3.463l.238-5.335L56.747 59H54.99l-2.557-8.798.237 5.335V59h-2.584V46.203h3.375zM66.441 59h-2.584V46.203h2.584V59zm10.495-12.797v8.86c-.012 1.33-.378 2.35-1.1 3.058-.72.703-1.754 1.055-3.102 1.055-1.37 0-2.42-.358-3.146-1.073-.72-.714-1.081-1.748-1.081-3.102v-8.798h2.601v8.807c0 .726.118 1.245.352 1.555.234.311.66.466 1.274.466.616 0 1.038-.152 1.266-.457.228-.31.346-.817.352-1.52v-8.85h2.584zm5.334 0l2.418 9.255 2.408-9.255h3.375V59h-2.593v-3.463l.237-5.335L85.558 59H83.8l-2.558-8.798.237 5.335V59h-2.584V46.203h3.376z" fill="#1B1B24"/><path fill="#000" d="M0 4h15v55H0z"/></svg>