<svg width="18" height="15" fill="none" xmlns="http://www.w3.org/2000/svg"><path d="M17.02 8.654h-.29v-.866c0-.572-.34-1.09-.865-1.32V2.02a.289.289 0 0 0-.173-.264c.113-.18.173-.389.173-.601a1.154 1.154 0 0 0-2.307 0c0 .203.056.402.16.577H3.59a1.15 1.15 0 0 0 .16-.577 1.154 1.154 0 0 0-2.308 0c0 .212.06.42.173.601a.288.288 0 0 0-.173.264v4.45a1.442 1.442 0 0 0-.865 1.32v.865H.288A.288.288 0 0 0 0 8.943v4.039c0 .16.13.288.288.288h.289v1.442c0 .16.13.289.288.289H2.02a.29.29 0 0 0 .289-.289V13.27H15v1.442c0 .16.13.289.289.289h1.153a.29.29 0 0 0 .289-.289V13.27h.288c.16 0 .289-.129.289-.288v-4.04a.289.289 0 0 0-.289-.288zM14.71.577a.577.577 0 1 1 0 1.154.577.577 0 0 1 0-1.154zm-12.115 0a.577.577 0 1 1 0 1.154.577.577 0 0 1 0-1.154zm-.577 1.73h13.27v4.04h-1.162a1.43 1.43 0 0 0 .296-.866v-.577a1.444 1.444 0 0 0-1.442-1.442h-2.308c-.796 0-1.441.646-1.442 1.442v.577c0 .313.105.617.296.865H7.78c.19-.248.295-.552.296-.865v-.577a1.443 1.443 0 0 0-1.442-1.442H4.327c-.796 0-1.441.646-1.442 1.442v.577c0 .313.105.617.296.865H2.019V2.308zm11.827 2.597v.577a.865.865 0 0 1-.865.865h-2.308a.865.865 0 0 1-.865-.865v-.577c0-.478.387-.866.865-.866h2.308c.478 0 .865.388.865.866zm-6.346 0v.577a.865.865 0 0 1-.865.865H4.327a.865.865 0 0 1-.865-.865v-.577c0-.478.387-.866.865-.866h2.308c.478 0 .865.388.865.866zM1.154 7.788c0-.477.387-.865.865-.865h13.27c.477 0 .865.388.865.865v.866h-15v-.866zm.577 6.635h-.577V13.27h.577v1.154zm14.423 0h-.577V13.27h.577v1.154zm.577-1.73H.577V9.23H16.73v3.461z" fill="#000"/></svg>