<svg width="9" height="15" fill="none" xmlns="http://www.w3.org/2000/svg"><path d="M4.35 0H.284A.284.284 0 0 0 0 .283v14.434c0 .156.127.283.283.283h4.068a.284.284 0 0 0 .283-.284V.284A.284.284 0 0 0 4.351 0zm-.283 1.913h-.7a.284.284 0 0 0 0 .567h.7v.947h-.7a.284.284 0 0 0 0 .567h.7v.955H2.73a.284.284 0 0 0 0 .567h1.337v.947h-.7a.284.284 0 0 0 0 .567h.7v.95h-.7a.284.284 0 0 0 0 .566h.7v.938H2.73a.284.284 0 0 0 0 .567h1.337v.947h-.7a.284.284 0 0 0 0 .567h.7v.946h-.7a.284.284 0 0 0 0 .567h.7v1.347h-3.5V.567h3.5v1.346zm3.807.867a.284.284 0 0 0 .216-.467L7.214.788a.283.283 0 0 0-.49 0l-.905 1.567a.283.283 0 0 0 .247.426h.62v9.438h-.62a.284.284 0 0 0-.247.426l.904 1.567a.284.284 0 0 0 .49 0l.905-1.567a.283.283 0 0 0-.247-.426h-.62V2.781h.623zm-.49 10.006l-.414.717-.414-.717h.828zM6.556 2.214l.414-.717.414.717h-.828z" fill="#000"/></svg>