<svg width="17" height="16" fill="none" xmlns="http://www.w3.org/2000/svg"><path d="M3.421 9.112a.333.333 0 0 1-.232-.096.328.328 0 1 1 .232.096zm5.189 3.155c-.413 0-.853-.042-1.308-.124-1.41-.256-2.648-1.045-3.577-2.282a.328.328 0 1 1 .525-.394c.84 1.118 1.906 1.8 3.17 2.03a6.75 6.75 0 0 0 1.19.114.329.329 0 0 1 0 .656z" fill="#000"/><path d="M14.008 10.557l.017-.052c.511-1.634-.364-3.255-1.039-4.19a3.53 3.53 0 0 0 .33-.521l.714.214.03.007c.38.075.384.075.423.075a.61.61 0 0 0 .481-.238.609.609 0 0 0 .08-.59l-.198-.497.347-.386a.33.33 0 0 0 .04-.054.605.605 0 0 0-.648-.897l-.927.158A3.542 3.542 0 0 0 10.171.641a3.54 3.54 0 0 0-3.078 5.276l-.079-.006a29.482 29.482 0 0 0-3.26-.043.33.33 0 0 0-.052.006l-.99-.26-.781-.271a.329.329 0 0 0-.436.32c.004.136.1 3.061 1.159 4.939-.74.23-1.337.5-1.778.805-.581.402-.876.853-.876 1.34 0 .853.897 1.588 2.595 2.127 1.556.494 3.62.767 5.81.767 2.19 0 4.254-.273 5.81-.767 1.698-.54 2.595-1.274 2.595-2.127 0-.88-.992-1.653-2.802-2.19zm.213-6.08a.329.329 0 0 0-.06.342l.237.593a89.299 89.299 0 0 1-.195-.038l-.642-.192c.09-.302.14-.618.146-.938l.856-.146-.342.38zm-7.249 2.09a19.748 19.748 0 0 1 .783.072c2.124.243 2.744.733 2.922 1.022.362.585.36 1.336-.002 1.869-.505.74-1.582 1.002-3.033.739-1.178-.214-2.13-.963-2.83-2.228a7.362 7.362 0 0 1-.626-1.532 29.316 29.316 0 0 1 2.786.058zm-4.464-.328a.318.318 0 0 0 .024.007l.971.255c.092.363.306 1.08.724 1.84.79 1.436 1.93 2.326 3.298 2.574.426.077.806.11 1.147.11 1.518 0 2.233-.668 2.545-1.125.515-.756.522-1.77.019-2.585C10.824 6.65 9.744 6.218 7.943 6a2.873 2.873 0 0 1-.651-1.824 2.882 2.882 0 0 1 2.88-2.879 2.882 2.882 0 0 1 2.879 2.879c0 .706-.258 1.385-.727 1.912a.328.328 0 0 0-.014.418c.487.632 1.569 2.267 1.088 3.804-.553 1.767-2.547 3.004-4.742 2.939-2.173-.064-3.848-.882-5.12-2.502-.984-1.252-1.274-3.61-1.355-4.622l.327.114zm11.509 8.01c-1.494.474-3.487.735-5.612.735-2.124 0-4.117-.261-5.612-.736-1.338-.425-2.136-.986-2.136-1.5 0-.546.908-1.146 2.378-1.575 1.38 1.744 3.264 2.664 5.601 2.732l.182.003c2.135 0 4.083-1.105 4.934-2.742 1.486.43 2.402 1.03 2.402 1.581 0 .515-.8 1.076-2.137 1.501z" fill="#000"/><path d="M7.817 9.634a.342.342 0 0 1-.059-.005c-.962-.174-1.754-.8-2.353-1.859a5.285 5.285 0 0 1-.072-.132.328.328 0 0 1 .58-.308c.02.04.042.078.064.117.498.881 1.137 1.398 1.898 1.536a.328.328 0 0 1-.058.651zm3.668-5.347a.328.328 0 0 1-.328-.329c0-.048-.07-.102-.162-.102-.093 0-.162.054-.162.102a.328.328 0 0 1-.656 0c0-.418.367-.759.818-.759.451 0 .819.34.819.76a.328.328 0 0 1-.329.328z" fill="#000"/></svg>