<svg width="22" height="13" fill="none" xmlns="http://www.w3.org/2000/svg"><path d="M1 6.5l-.497-.42a.65.65 0 0 0 0 .837L1 6.5zm20 0l.497.418a.65.65 0 0 0 0-.837L21 6.5zm-20 0l.497.418.001-.001a1.892 1.892 0 0 1 .039-.044 13.55 13.55 0 0 1 .663-.687 16.942 16.942 0 0 1 2-1.656C5.92 3.321 8.288 2.15 11 2.15V.85c-3.083 0-5.713 1.327-7.547 2.618a18.24 18.24 0 0 0-2.157 1.783 14.848 14.848 0 0 0-.788.824 1.992 1.992 0 0 0-.004.004v.001H.502L1 6.5zm0 0l-.497.418a.2.2 0 0 1 .005.006 3.759 3.759 0 0 0 .053.061 14.842 14.842 0 0 0 .735.763 18.24 18.24 0 0 0 2.157 1.783c1.834 1.29 4.464 2.618 7.547 2.618v-1.3c-2.712 0-5.08-1.172-6.799-2.381A16.942 16.942 0 0 1 2.2 6.813a13.544 13.544 0 0 1-.702-.732L1 6.5zm10 5.65c3.083 0 5.713-1.328 7.547-2.619a18.242 18.242 0 0 0 2.157-1.783 14.828 14.828 0 0 0 .777-.81l.011-.014.003-.004a.025.025 0 0 0 .002-.002L21 6.5a123.44 123.44 0 0 1-.497-.42l-.001.002-.007.008-.032.036a13.474 13.474 0 0 1-.663.687 16.943 16.943 0 0 1-2 1.655c-1.72 1.21-4.09 2.382-6.8 2.382v1.3zM21 6.5a78.893 78.893 0 0 0 .495-.421l-.003-.004-.011-.014a7.006 7.006 0 0 0-.196-.217c-.133-.145-.329-.35-.58-.593a18.242 18.242 0 0 0-2.158-1.783C16.713 2.178 14.083.85 11 .85v1.3c2.711 0 5.08 1.172 6.799 2.381A16.943 16.943 0 0 1 19.8 6.186a13.481 13.481 0 0 1 .662.687l.032.036.007.008v.001c.001 0 .001 0 0 0L21 6.5zm-7.317 0A2.683 2.683 0 0 1 11 9.183v1.3c2.2 0 3.983-1.783 3.983-3.983h-1.3zM11 9.183A2.683 2.683 0 0 1 8.316 6.5h-1.3c0 2.2 1.784 3.983 3.984 3.983v-1.3zM8.316 6.5A2.683 2.683 0 0 1 11 3.817v-1.3A3.983 3.983 0 0 0 7.016 6.5h1.3zM11 3.817A2.683 2.683 0 0 1 13.683 6.5h1.3c0-2.2-1.783-3.983-3.983-3.983v1.3z" fill="#E09B3D"/></svg>