<svg width="20" height="15" fill="none" xmlns="http://www.w3.org/2000/svg"><path d="M14.865 12.46l-.245-.098-.244.101c-1.352.562-2.932.887-4.626.887-2.572 0-4.873-.75-6.515-1.928C1.592 10.242.65 8.67.65 7s.942-3.242 2.585-4.422C4.877 1.4 7.178.65 9.75.65c2.572 0 4.873.75 6.515 1.928C17.908 3.758 18.85 5.33 18.85 7c0 1.073-.386 2.098-1.094 3.009l-.199.255.084.312.896 3.342-3.672-1.459z" stroke="#E09B3D" stroke-width="1.3"/><path d="M6 6h1.5v1.5H6V6zm3 0h1.5v1.5H9V6zm3 0h1.5v1.5H12V6z" fill="#E09B3D"/></svg>