<svg width="40" height="40" fill="none" xmlns="http://www.w3.org/2000/svg"><circle cx="20.869" cy="19.131" r="17.391" fill="#fff"/><path d="M25.96 10.642H14.04a3.455 3.455 0 0 0-3.451 3.45v11.923a3.455 3.455 0 0 0 3.45 3.451h11.923a3.455 3.455 0 0 0 3.451-3.451V14.093a3.455 3.455 0 0 0-3.451-3.451zM20 26.25a6.204 6.204 0 0 1-6.197-6.197A6.204 6.204 0 0 1 20 13.857a6.204 6.204 0 0 1 6.197 6.197A6.205 6.205 0 0 1 20 26.25zm6.396-11.113a1.468 1.468 0 0 1-1.466-1.466c0-.808.657-1.466 1.466-1.466a1.467 1.467 0 0 1 0 2.932z" fill="url(#paint0_linear)"/><path d="M25.96 10.642H14.04a3.455 3.455 0 0 0-3.451 3.45v11.923a3.455 3.455 0 0 0 3.45 3.451h11.923a3.455 3.455 0 0 0 3.451-3.451V14.093a3.455 3.455 0 0 0-3.451-3.451zM20 26.25a6.204 6.204 0 0 1-6.197-6.197A6.204 6.204 0 0 1 20 13.857a6.204 6.204 0 0 1 6.197 6.197A6.205 6.205 0 0 1 20 26.25zm6.396-11.113a1.468 1.468 0 0 1-1.466-1.466c0-.808.657-1.466 1.466-1.466a1.467 1.467 0 0 1 0 2.932z" fill="#000"/><path d="M20 16.476a3.583 3.583 0 0 0-3.579 3.578A3.583 3.583 0 0 0 20 23.633a3.582 3.582 0 0 0 3.578-3.58A3.582 3.582 0 0 0 20 16.477z" fill="url(#paint1_linear)"/><path d="M20 16.476a3.583 3.583 0 0 0-3.579 3.578A3.583 3.583 0 0 0 20 23.633a3.582 3.582 0 0 0 3.578-3.58A3.582 3.582 0 0 0 20 16.477z" fill="#000"/><path d="M20 0C8.955 0 0 8.955 0 20s8.955 20 20 20 20-8.955 20-20S31.045 0 20 0zm12.03 26.015a6.076 6.076 0 0 1-6.07 6.07H14.04a6.076 6.076 0 0 1-6.07-6.07V14.093a6.077 6.077 0 0 1 6.07-6.07h11.92a6.076 6.076 0 0 1 6.07 6.07v11.922z" fill="url(#paint2_linear)"/><path d="M20 0C8.955 0 0 8.955 0 20s8.955 20 20 20 20-8.955 20-20S31.045 0 20 0zm12.03 26.015a6.076 6.076 0 0 1-6.07 6.07H14.04a6.076 6.076 0 0 1-6.07-6.07V14.093a6.077 6.077 0 0 1 6.07-6.07h11.92a6.076 6.076 0 0 1 6.07 6.07v11.922z" fill="#000"/><defs><linearGradient id="paint0_linear" x1="8.941" y1="10.642" x2="28" y2="29.466" gradientUnits="userSpaceOnUse"><stop stop-color="#E09B3D"/><stop offset="1" stop-color="#D9B02E"/></linearGradient><linearGradient id="paint1_linear" x1="15.795" y1="16.476" x2="23.041" y2="23.633" gradientUnits="userSpaceOnUse"><stop stop-color="#E09B3D"/><stop offset="1" stop-color="#D9B02E"/></linearGradient><linearGradient id="paint2_linear" x1="-3.5" y1="0" x2="37" y2="40" gradientUnits="userSpaceOnUse"><stop stop-color="#E09B3D"/><stop offset="1" stop-color="#D9B02E"/></linearGradient></defs></svg>