<svg width="40" height="40" fill="none" xmlns="http://www.w3.org/2000/svg"><path d="M20 40c11.046 0 20-8.954 20-20S31.046 0 20 0 0 8.954 0 20s8.954 20 20 20z" fill="url(#paint0_linear)"/><path d="M20 40c11.046 0 20-8.954 20-20S31.046 0 20 0 0 8.954 0 20s8.954 20 20 20z" fill="#000"/><path d="M25.028 20.783H21.46v13.074h-5.407V20.783h-2.571v-4.595h2.571v-2.973c0-2.127 1.01-5.456 5.456-5.456l4.005.017v4.46h-2.906c-.477 0-1.147.238-1.147 1.252v2.704h4.04l-.472 4.591z" fill="#fff"/><defs><linearGradient id="paint0_linear" x1="-3.5" y1="0" x2="37" y2="40" gradientUnits="userSpaceOnUse"><stop stop-color="#E09B3D"/><stop offset="1" stop-color="#D9B02E"/></linearGradient></defs></svg>