<svg width="35" height="35" viewBox="0 0 35 35" fill="none" xmlns="http://www.w3.org/2000/svg">
<path d="M18.1344 0H8.64678C8.28184 0 7.9856 0.296244 7.9856 0.661179V34.3273C7.9856 34.6922 8.28184 34.9885 8.64678 34.9885H18.1344C18.4993 34.9885 18.7956 34.6922 18.7956 34.3273V0.661179C18.7956 0.296244 18.4993 0 18.1344 0ZM17.4732 4.46278H15.8402C15.4753 4.46278 15.179 4.75903 15.179 5.12396C15.179 5.4889 15.4753 5.78514 15.8402 5.78514H17.4732V7.9934H15.8402C15.4753 7.9934 15.179 8.28965 15.179 8.65458C15.179 9.01952 15.4753 9.31576 15.8402 9.31576H17.4732V11.5438H14.3526C13.9877 11.5438 13.6914 11.8401 13.6914 12.205C13.6914 12.57 13.9877 12.8662 14.3526 12.8662H17.4732V15.0745H15.8402C15.4753 15.0745 15.179 15.3707 15.179 15.7356C15.179 16.1006 15.4753 16.3968 15.8402 16.3968H17.4732V18.6117H15.8402C15.4753 18.6117 15.179 18.9079 15.179 19.2729C15.179 19.6378 15.4753 19.9341 15.8402 19.9341H17.4732V22.1225H14.3526C13.9877 22.1225 13.6914 22.4187 13.6914 22.7837C13.6914 23.1486 13.9877 23.4448 14.3526 23.4448H17.4732V25.6531H15.8402C15.4753 25.6531 15.179 25.9493 15.179 26.3143C15.179 26.6792 15.4753 26.9755 15.8402 26.9755H17.4732V29.1837H15.8402C15.4753 29.1837 15.179 29.48 15.179 29.8449C15.179 30.2098 15.4753 30.5061 15.8402 30.5061H17.4732V33.6465H9.30795V1.32236H17.4732V4.46278Z" fill="#E09B3D"/>
<path d="M26.3524 6.48589C26.7173 6.48589 27.0136 6.18964 27.0136 5.82471C27.0136 5.66726 26.9574 5.51454 26.8549 5.39486L24.8119 1.8378C24.6287 1.52196 24.2241 1.41479 23.9083 1.59797C23.8082 1.65533 23.7256 1.73866 23.6682 1.8378L21.5591 5.49423C21.3766 5.81007 21.485 6.2149 21.801 6.39713C21.9023 6.45544 22.0173 6.4866 22.1343 6.48589H23.5823V28.5024H22.1343C21.7694 28.501 21.4717 28.7961 21.4706 29.161C21.4699 29.2781 21.5008 29.393 21.5591 29.4941L23.6682 33.1505C23.8514 33.4663 24.256 33.5735 24.5721 33.3903C24.6719 33.333 24.7545 33.2496 24.8119 33.1505L26.921 29.4941C27.1035 29.1782 26.9951 28.7734 26.6791 28.5912C26.5778 28.5329 26.4628 28.5017 26.3458 28.5024H24.8978V6.48589H26.3524ZM25.2087 29.8248L24.2435 31.4974L23.278 29.8248H25.2087ZM23.278 5.16353L24.2435 3.49087L25.2087 5.16353H23.278Z" fill="#E09B3D"/>
</svg>
