<svg width="35" height="35" viewBox="0 0 35 35" fill="none" xmlns="http://www.w3.org/2000/svg">
<g clip-path="url(#clip0)">
<path d="M26.979 13.8535H6.56182C5.35573 13.8535 4.37427 14.835 4.37427 16.0411V17.4994C4.37427 22.7029 7.24871 27.4222 11.8746 29.8153C12.232 29.9991 12.6723 29.8605 12.8576 29.5018C13.0413 29.1444 12.9028 28.7041 12.544 28.5188C8.40517 26.3779 5.83261 22.156 5.83261 17.4993V16.041C5.83261 15.6385 6.15931 15.3118 6.56182 15.3118H26.979C27.3815 15.3118 27.7082 15.6385 27.7082 16.041V17.4993C27.7082 22.1559 25.1356 26.3779 20.9953 28.5173C20.6366 28.7025 20.498 29.1429 20.6818 29.5003C20.8116 29.7511 21.0668 29.8955 21.3307 29.8955C21.4445 29.8955 21.5582 29.8692 21.6647 29.8138C26.2921 27.422 29.1665 22.7042 29.1665 17.4993V16.0409C29.1665 14.835 28.185 13.8535 26.979 13.8535Z" fill="#E09B3D"/>
<path d="M33.4874 28.8864C33.3737 28.6137 33.1082 28.4358 32.8137 28.4358H0.729594C0.435026 28.4358 0.169581 28.6137 0.0558281 28.8864C-0.0579246 29.1591 0.00476244 29.4727 0.213332 29.6813L1.84818 31.3175C2.81365 32.2815 4.09405 32.8124 5.45764 32.8124H28.0827C29.4463 32.8124 30.7282 32.2816 31.6951 31.3175L33.33 29.6813C33.5385 29.4727 33.6012 29.1591 33.4874 28.8864ZM30.6626 30.2865C29.9743 30.9748 29.0569 31.354 28.0842 31.354H5.45764C4.48493 31.354 3.5676 30.9748 2.87927 30.2865L2.48845 29.8956H31.0534L30.6626 30.2865Z" fill="#E09B3D"/>
<path d="M33.5899 17.2969C31.6255 16.0339 28.4871 17.4048 28.1356 17.5638C27.7695 17.7314 27.6062 18.1631 27.7739 18.5307C27.9416 18.8982 28.3719 19.06 28.7408 18.8924C29.4438 18.573 31.6984 17.8161 32.8009 18.5263C33.2982 18.8457 33.5417 19.4655 33.5417 20.4163C33.5417 23.3359 27.6529 25.1006 25.3792 25.5352L24.863 25.6373C24.4678 25.7146 24.2111 26.0981 24.2884 26.4933C24.357 26.8404 24.6617 27.081 25.003 27.081C25.0497 27.081 25.0963 27.0767 25.1444 27.0665L25.6563 26.9658C26.0384 26.8929 35.0001 25.1356 35.0001 20.4163C35.0002 18.9492 34.5248 17.9006 33.5899 17.2969Z" fill="#E09B3D"/>
<path d="M22.448 7.74589C23.6336 6.26417 23.6336 3.94393 22.448 2.4622C22.1956 2.14719 21.7392 2.09469 21.4227 2.34845C21.1077 2.60077 21.0567 3.05865 21.309 3.37366C22.0601 4.31137 22.0601 5.89666 21.3076 6.8373C20.1205 8.31903 20.1205 10.6393 21.3076 12.121C21.4519 12.3018 21.6634 12.3952 21.8778 12.3952C22.0367 12.3952 22.1986 12.3427 22.3328 12.2347C22.6478 11.9824 22.6988 11.523 22.4465 11.2095C21.694 10.2718 21.694 8.68654 22.448 7.74589Z" fill="#E09B3D"/>
<path d="M18.067 7.74602C19.2541 6.2643 19.2541 3.94406 18.067 2.46233C17.8162 2.14732 17.3568 2.09626 17.0418 2.34858C16.7268 2.6009 16.6757 3.06028 16.928 3.37379C17.6805 4.3115 17.6805 5.89679 16.9266 6.83743C15.7409 8.31916 15.7409 10.6394 16.9266 12.1211C17.071 12.3019 17.2824 12.3953 17.4968 12.3953C17.6557 12.3953 17.8162 12.3428 17.9518 12.2349C18.2668 11.9826 18.3179 11.5247 18.0656 11.2097C17.3145 10.2719 17.3145 8.68667 18.067 7.74602Z" fill="#E09B3D"/>
<path d="M13.6977 7.74735C14.8834 6.26563 14.8834 3.94539 13.6977 2.46367C13.4469 2.14866 12.9889 2.09616 12.6725 2.34991C12.3589 2.60073 12.3079 3.06012 12.5587 3.37369C13.3098 4.3114 13.3098 5.89669 12.5573 6.83733C11.3702 8.31906 11.3702 10.6393 12.5573 12.121C12.7017 12.3018 12.9131 12.3952 13.1275 12.3952C13.2865 12.3952 13.4483 12.3427 13.5825 12.2363C13.8975 11.984 13.9486 11.5246 13.6963 11.2111C12.9438 10.2718 12.9438 8.688 13.6977 7.74735Z" fill="#E09B3D"/>
</g>
<defs>
<clipPath id="clip0">
<rect width="35" height="35" fill="white"/>
</clipPath>
</defs>
</svg>
