<svg width="38" height="38" viewBox="0 0 38 38" fill="none" xmlns="http://www.w3.org/2000/svg">
<path d="M21.0217 16.1316C20.7522 15.9006 20.4442 15.7466 20.0977 15.6311C19.7512 15.5541 19.3662 15.5156 18.9042 15.5156H17.1331C16.8251 15.5156 16.6326 15.5926 16.4786 15.7081C16.3631 15.8236 16.2861 16.0546 16.2861 16.3626V21.3292C16.2861 21.5602 16.2861 21.7142 16.3631 21.8682C16.4016 22.0222 16.4786 22.0992 16.5941 22.1762C16.7096 22.2532 16.9021 22.2917 17.1716 22.2917H18.9427C19.2507 22.2917 19.5202 22.2532 19.7897 22.2147C20.0207 22.1762 20.2517 22.0992 20.4827 22.0222C20.7137 21.9067 20.9062 21.7912 21.0602 21.6372C21.2912 21.4062 21.4837 21.1752 21.6377 20.9057C21.7917 20.6362 21.9072 20.3282 21.9842 19.9817C22.0612 19.6352 22.0997 19.2887 22.0997 18.8652C22.0997 17.6717 21.7532 16.7476 21.0217 16.1316ZM20.0207 20.9057C19.9052 20.9827 19.7897 21.0597 19.6742 21.0982C19.5202 21.1367 19.4047 21.1752 19.2892 21.1752C19.1737 21.1752 18.9812 21.1752 18.7502 21.1752H17.7107V16.5551H18.6347C19.0582 16.5551 19.4047 16.5936 19.7127 16.7091C20.0207 16.7861 20.2517 17.0171 20.4442 17.3636C20.6367 17.7102 20.7522 18.2107 20.7522 18.8652C20.7137 19.8662 20.4827 20.5207 20.0207 20.9057Z" fill="black"/>
<path d="M33.2646 7.5846L33.2261 7.5461V7.5076L25.911 0.192503L25.8725 0.154002C25.8725 0.154002 25.834 0.154002 25.834 0.115502C25.834 0.115502 25.7955 0.115502 25.7955 0.077001C25.68 0 25.5645 0 25.4105 0H7.27673C6.58372 0 5.92921 0.269504 5.4672 0.73151L5.4287 0.77001C4.9667 1.23202 4.65869 1.92503 4.65869 2.61803V35.382C4.65869 36.1135 4.9667 36.768 5.4287 37.23C5.89071 37.692 6.58372 38 7.27673 38H30.7235C31.455 38 32.1096 37.692 32.5716 37.23C33.0336 36.768 33.3416 36.075 33.3416 35.382V7.96961C33.3416 7.8156 33.3031 7.7001 33.2646 7.5846ZM26.142 2.77204L30.4925 7.12259H27.297C26.989 7.12259 26.681 7.00709 26.4885 6.77609C26.296 6.58359 26.142 6.27558 26.142 5.96758V2.77204ZM31.6861 35.382C31.6861 35.6515 31.5705 35.8825 31.378 36.075C31.1855 36.2675 30.9545 36.383 30.685 36.383H7.27673C7.00722 36.383 6.77622 36.2675 6.58372 36.1135C6.39121 35.921 6.31421 35.69 6.31421 35.4205V2.57953C6.31421 2.31003 6.42971 2.07903 6.62222 1.88652L6.66072 1.84802C6.85322 1.69402 7.08422 1.57852 7.31523 1.57852H24.5635V5.92908C24.5635 6.69909 24.8715 7.3921 25.4105 7.93111C25.911 8.43161 26.6425 8.73962 27.4125 8.73962H31.6861V35.382Z" fill="black"/>
<path d="M14.5147 16.0547C14.3222 15.8622 14.0912 15.7467 13.7832 15.6697C13.5137 15.5927 13.0902 15.5542 12.5897 15.5542H10.8187C10.5107 15.5542 10.2797 15.6312 10.1642 15.7467C10.0102 15.8622 9.97168 16.0932 9.97168 16.4012V21.6373C9.97168 21.9068 10.0487 22.0993 10.1642 22.2533C10.2797 22.4073 10.4722 22.4458 10.6647 22.4458C10.8572 22.4458 11.0112 22.3688 11.1652 22.2148C11.2807 22.0608 11.3577 21.8683 11.3577 21.5988V19.6738H12.6282C13.4752 19.6738 14.0912 19.4813 14.5147 19.1348C14.9383 18.7882 15.1693 18.2492 15.1693 17.5562C15.1693 17.2482 15.1308 16.9402 15.0153 16.6707C14.8613 16.4397 14.7073 16.2087 14.5147 16.0547ZM13.5907 18.2107C13.4752 18.3647 13.3212 18.4802 13.0902 18.5572C12.8592 18.6342 12.5897 18.6727 12.2817 18.6727H11.3577V16.5937H12.2817C12.8977 16.5937 13.2827 16.7092 13.5137 16.9017C13.7062 17.0942 13.7832 17.3252 13.7832 17.6332C13.7447 17.8642 13.7062 18.0567 13.5907 18.2107Z" fill="black"/>
<path d="M24.14 15.4773C23.909 15.5158 23.755 15.5543 23.6395 15.6313C23.524 15.6698 23.4085 15.7853 23.37 15.9008C23.293 16.0163 23.293 16.1703 23.293 16.4013V21.5989C23.293 21.8684 23.37 22.0994 23.4855 22.2149C23.601 22.3689 23.7935 22.4074 23.986 22.4074C24.1785 22.4074 24.3325 22.3304 24.4865 22.2149C24.602 22.0609 24.679 21.8684 24.679 21.5989V19.3659H26.9505C27.143 19.3659 27.297 19.3274 27.4125 19.2119C27.528 19.1349 27.5665 18.9808 27.5665 18.8268C27.5665 18.6728 27.528 18.5573 27.4125 18.4418C27.297 18.3648 27.143 18.2878 26.9505 18.2878H24.679V16.5553H27.374C27.605 16.5553 27.759 16.5168 27.8745 16.4013C27.99 16.2858 28.0285 16.1703 28.0285 16.0163C28.0285 15.8623 27.99 15.7468 27.8745 15.6313C27.759 15.5158 27.605 15.4773 27.374 15.4773H24.14Z" fill="black"/>
</svg>
