<svg width="35" height="31" viewBox="0 0 35 31" fill="none" xmlns="http://www.w3.org/2000/svg">
<path d="M34.4167 17.8333H33.8333V16.0833C33.8318 14.9249 33.145 13.8772 32.0833 13.4139V4.41659C32.0832 4.18471 31.9458 3.975 31.7333 3.88225C31.9609 3.51752 32.0821 3.0965 32.0833 2.66659C32.0833 1.37793 31.0387 0.333252 29.75 0.333252C28.4613 0.333252 27.4167 1.37793 27.4167 2.66659C27.4191 3.0774 27.5311 3.48012 27.741 3.83325H7.259C7.46893 3.48012 7.58093 3.0774 7.58333 2.66659C7.58333 1.37793 6.53866 0.333252 5.25 0.333252C3.96134 0.333252 2.91667 1.37793 2.91667 2.66659C2.91791 3.0965 3.03909 3.51752 3.26667 3.88225C3.05419 3.975 2.91681 4.18471 2.91667 4.41659V13.4139C1.855 13.8772 1.1682 14.9249 1.16667 16.0833V17.8333H0.583333C0.261187 17.8333 0 18.0944 0 18.4166V26.5833C0 26.9054 0.261187 27.1666 0.583333 27.1666H1.16667V30.0833C1.16667 30.4054 1.42785 30.6666 1.75 30.6666H4.08333C4.40548 30.6666 4.66667 30.4054 4.66667 30.0833V27.1666H30.3333V30.0833C30.3333 30.4054 30.5945 30.6666 30.9167 30.6666H33.25C33.5721 30.6666 33.8333 30.4054 33.8333 30.0833V27.1666H34.4167C34.7388 27.1666 35 26.9054 35 26.5833V18.4166C35 18.0944 34.7388 17.8333 34.4167 17.8333ZM29.75 1.49992C30.3944 1.49992 30.9167 2.02222 30.9167 2.66659C30.9167 3.31095 30.3944 3.83325 29.75 3.83325C29.1056 3.83325 28.5833 3.31095 28.5833 2.66659C28.5833 2.02222 29.1056 1.49992 29.75 1.49992ZM5.25 1.49992C5.89436 1.49992 6.41667 2.02222 6.41667 2.66659C6.41667 3.31095 5.89436 3.83325 5.25 3.83325C4.60564 3.83325 4.08333 3.31095 4.08333 2.66659C4.08333 2.02222 4.60564 1.49992 5.25 1.49992ZM4.08333 4.99992H30.9167V13.1666H28.5682C28.9542 12.6647 29.1646 12.0498 29.1667 11.4166V10.2499C29.1648 8.63992 27.86 7.33515 26.25 7.33325H21.5833C19.9733 7.33515 18.6686 8.63992 18.6667 10.2499V11.4166C18.6688 12.0498 18.8791 12.6647 19.2652 13.1666H15.7348C16.1209 12.6647 16.3312 12.0498 16.3333 11.4166V10.2499C16.3314 8.63992 15.0267 7.33515 13.4167 7.33325H8.75C7.14 7.33515 5.83523 8.63992 5.83333 10.2499V11.4166C5.83545 12.0498 6.04581 12.6647 6.43183 13.1666H4.08333V4.99992ZM28 10.2499V11.4166C28 12.3831 27.2165 13.1666 26.25 13.1666H21.5833C20.6168 13.1666 19.8333 12.3831 19.8333 11.4166V10.2499C19.8333 9.28341 20.6168 8.49992 21.5833 8.49992H26.25C27.2165 8.49992 28 9.28341 28 10.2499ZM15.1667 10.2499V11.4166C15.1667 12.3831 14.3832 13.1666 13.4167 13.1666H8.75C7.78349 13.1666 7 12.3831 7 11.4166V10.2499C7 9.28341 7.78349 8.49992 8.75 8.49992H13.4167C14.3832 8.49992 15.1667 9.28341 15.1667 10.2499ZM2.33333 16.0833C2.33333 15.1167 3.11682 14.3333 4.08333 14.3333H30.9167C31.8832 14.3333 32.6667 15.1167 32.6667 16.0833V17.8333H2.33333V16.0833ZM3.5 29.4999H2.33333V27.1666H3.5V29.4999ZM32.6667 29.4999H31.5V27.1666H32.6667V29.4999ZM33.8333 25.9999H1.16667V18.9999H33.8333V25.9999Z" fill="#E09B3D"/>
</svg>
