<svg width="35" height="35" viewBox="0 0 35 35" fill="none" xmlns="http://www.w3.org/2000/svg">
<path d="M31.9143 20.4209C32.2348 20.4209 32.4946 20.1611 32.4946 19.8407V18.0999C33.4542 18.0956 34.2308 17.3187 34.2353 16.3591C34.2353 15.3978 33.4559 14.6183 32.4946 14.6183V12.5103C34.0747 11.6779 35.0451 10.0207 34.9984 8.23546C34.9984 5.67614 33.1757 3.59338 30.9365 3.59338C28.6974 3.59338 26.8747 5.67614 26.8747 8.23546C26.8404 9.87424 27.6474 11.4164 29.013 12.3222V14.6183H25.5314V0.692076C25.5314 0.37163 25.2716 0.111816 24.9512 0.111816H22.6301C22.3097 0.111816 22.0499 0.37163 22.0499 0.692076V14.6183C21.0902 14.6229 20.3136 15.3997 20.3091 16.3591C20.3091 17.3207 21.0885 18.0999 22.0499 18.0999V23.3222C21.0885 23.3222 20.3091 24.1017 20.3091 25.063C20.3091 26.0246 21.0885 26.8038 22.0499 26.8038V30.8656C22.0499 31.186 22.3097 31.4459 22.6301 31.4459H24.9512C25.2716 31.4459 25.5314 31.186 25.5314 30.8656V26.8038H30.1735V27.384C30.1696 30.9078 27.3142 33.7632 23.7907 33.7669H19.1486C16.5198 33.768 14.16 32.155 13.2066 29.7051H14.5065C16.1082 29.7034 17.4058 28.4054 17.4078 26.8038V5.91442C17.4058 4.31304 16.1082 3.0151 14.5065 3.01312H2.9013C1.29964 3.0151 0.00198331 4.31304 0 5.91442V26.8038C0.00198331 28.4054 1.29964 29.7034 2.9013 29.7051H11.9755C12.9788 32.8189 15.8773 34.9291 19.1486 34.9274H23.7907C27.9548 34.9226 31.3292 31.5481 31.334 27.384V26.8038H32.4946C33.4559 26.8038 34.2353 26.0246 34.2353 25.063C34.2353 24.1017 33.4559 23.3222 32.4946 23.3222H31.334V20.4209H31.9143ZM1.16052 26.8038V5.91442C1.16052 4.95308 1.93996 4.17364 2.9013 4.17364H14.5065C15.4678 4.17364 16.2473 4.95308 16.2473 5.91442V26.8038C16.2473 27.7654 15.4678 28.5446 14.5065 28.5446H2.9013C1.93996 28.5446 1.16052 27.7654 1.16052 26.8038ZM31.334 19.2604H30.1735V12.7923C30.2495 12.8129 30.3271 12.8274 30.4056 12.8353C30.5818 12.8637 30.76 12.8775 30.9382 12.877C31.0705 12.877 31.2029 12.8688 31.334 12.852V19.2604ZM33.0748 16.3591C33.0751 16.5158 33.0108 16.6657 32.8966 16.773C32.7909 16.8807 32.6456 16.9408 32.4946 16.9394V15.7788C32.815 15.7788 33.0748 16.0387 33.0748 16.3591ZM27.9517 7.3322C28.2837 5.84897 29.4139 4.7539 30.7538 4.7539C32.0937 4.7539 33.2239 5.84897 33.5559 7.3322C32.9006 6.44084 31.8602 5.91442 30.7538 5.91442C29.6474 5.91442 28.607 6.44084 27.9517 7.3322ZM28.4327 9.39598C28.435 8.23716 29.2921 7.2574 30.4404 7.10072C31.5888 6.94432 32.6767 7.65916 32.989 8.7752C33.3012 9.89152 32.7422 11.0671 31.6794 11.5292C31.6593 11.5385 31.64 11.549 31.6213 11.5603C31.582 11.5765 31.5417 11.5895 31.5006 11.6L31.4726 11.6079L31.4508 11.6133L31.2343 11.6714C31.1918 11.6819 31.1487 11.689 31.1054 11.6927C31.0229 11.7054 30.9399 11.7136 30.8563 11.717C30.7552 11.7131 30.6543 11.7034 30.554 11.6881C30.5183 11.6844 30.4826 11.6776 30.4481 11.6677L30.2444 11.6156H30.2333L29.9826 11.5221C29.9061 11.494 29.8245 11.4824 29.7429 11.4884C28.943 11.0979 28.435 10.2862 28.4327 9.39598ZM23.2104 1.27234H24.3709V14.6183H23.2104V1.27234ZM21.4696 16.3591C21.4693 16.2027 21.5337 16.0528 21.6478 15.9454C21.7535 15.8378 21.8989 15.7777 22.0499 15.7788H29.013V16.9394H22.0499C21.7294 16.9394 21.4696 16.6795 21.4696 16.3591ZM23.2104 18.0999H24.3709V23.3222H23.2104V18.0999ZM24.3709 30.2853H23.2104V26.8038H24.3709V30.2853ZM22.0499 25.6433C21.7294 25.6433 21.4696 25.3834 21.4696 25.063C21.4696 24.7426 21.7294 24.4827 22.0499 24.4827H30.1735V25.6433H22.0499ZM32.4946 24.4827C32.815 24.4827 33.0748 24.7426 33.0748 25.063C33.0748 25.3834 32.815 25.6433 32.4946 25.6433H31.334V24.4827H32.4946ZM30.1735 23.3222H25.5314V18.0999H29.013V19.8407C29.013 20.1611 29.2728 20.4209 29.5933 20.4209H30.1735V23.3222Z" fill="#E09B3D"/>
<path d="M12.1855 5.33398H5.22235C4.9019 5.33398 4.64209 5.5938 4.64209 5.91424V16.3589C4.64209 16.6794 4.9019 16.9392 5.22235 16.9392H12.1855C12.5059 16.9392 12.7657 16.6794 12.7657 16.3589V5.91424C12.7657 5.5938 12.5059 5.33398 12.1855 5.33398ZM11.6052 15.7787H5.80261V6.4945H11.6052V15.7787Z" fill="#E09B3D"/>
<path d="M11.6051 21.0012C11.6051 19.3989 10.306 18.0999 8.70379 18.0999C7.10156 18.0999 5.80249 19.3989 5.80249 21.0012C5.80249 22.6037 7.10156 23.9025 8.70379 23.9025C10.3055 23.9008 11.6031 22.6028 11.6051 21.0012ZM8.70379 22.7419C7.85692 22.7436 7.13244 22.1342 6.98879 21.2995C6.84543 20.4651 7.32482 19.6485 8.12353 19.3672V20.4209C8.12353 20.7413 8.38334 21.0012 8.70379 21.0012C9.02424 21.0012 9.28405 20.7413 9.28405 20.4209V19.3672C10.0828 19.6485 10.5622 20.4651 10.4188 21.2995C10.2751 22.1342 9.55066 22.7436 8.70379 22.7419Z" fill="#E09B3D"/>
<path d="M7.54339 26.2234H5.22235C4.9019 26.2234 4.64209 26.4832 4.64209 26.8036C4.64209 27.1241 4.9019 27.3839 5.22235 27.3839H7.54339C7.86384 27.3839 8.12365 27.1241 8.12365 26.8036C8.12365 26.4832 7.86384 26.2234 7.54339 26.2234Z" fill="#E09B3D"/>
<path d="M12.1855 26.2234H9.86444C9.54399 26.2234 9.28418 26.4832 9.28418 26.8036C9.28418 27.1241 9.54399 27.3839 9.86444 27.3839H12.1855C12.5059 27.3839 12.7657 27.1241 12.7657 26.8036C12.7657 26.4832 12.5059 26.2234 12.1855 26.2234Z" fill="#E09B3D"/>
<path d="M8.7041 15.1985C9.98589 15.1985 11.0251 14.1595 11.0251 12.8774C11.0251 11.5957 9.98589 10.5564 8.7041 10.5564C7.42231 10.5564 6.38306 11.5957 6.38306 12.8774C6.38306 14.1595 7.42231 15.1985 8.7041 15.1985ZM8.7041 11.7169C9.22911 11.7147 9.68981 12.0663 9.82609 12.5734C9.96237 13.0806 9.73995 13.6155 9.28436 13.8767V13.4577C9.28436 13.1373 9.02455 12.8774 8.7041 12.8774C8.38365 12.8774 8.12384 13.1373 8.12384 13.4577V13.8767C7.66824 13.6155 7.44583 13.0806 7.58211 12.5734C7.71839 12.0663 8.17909 11.7147 8.7041 11.7169Z" fill="#E09B3D"/>
</svg>
