<svg width="35" height="35" viewBox="0 0 35 35" fill="none" xmlns="http://www.w3.org/2000/svg">
<g clip-path="url(#clip0)">
<path d="M12.3176 6.41675C6.84314 6.42273 2.4069 10.8593 2.40092 16.3334V17.7043C1.00525 18.2002 0.072998 19.521 0.072998 21.0021C0.072998 22.4832 1.00525 23.804 2.40092 24.3001V32.0834C2.40092 32.4056 2.66211 32.6667 2.98425 32.6667H3.69576L4.16829 34.558C4.23324 34.8178 4.46651 35.0001 4.73425 35.0001H6.48425C6.75199 35.0001 6.98527 34.8178 7.04993 34.558L7.52246 32.6667H17.1124L17.585 34.558C17.6499 34.8178 17.8832 35.0001 18.1509 35.0001H19.9009C20.1687 35.0001 20.4019 34.8178 20.4666 34.558L20.9391 32.6667H21.6509C21.9731 32.6667 22.2343 32.4056 22.2343 32.0834V24.3001C23.6296 23.804 24.5619 22.4832 24.5619 21.0021C24.5619 19.521 23.6296 18.2002 22.2343 17.7043V16.3334C22.228 10.8593 17.7917 6.42273 12.3176 6.41675ZM3.56759 16.3334C3.56759 11.501 7.48486 7.58341 12.3176 7.58341C17.15 7.58341 21.0676 11.501 21.0676 16.3334V17.5001C20.6697 17.5012 20.2752 17.5701 19.9009 17.7043V16.3334C19.9009 12.1453 16.5057 8.75008 12.3176 8.75008C8.12944 8.75008 4.73425 12.1453 4.73425 16.3334V17.7043C4.3597 17.5701 3.96521 17.5012 3.56759 17.5001V16.3334ZM7.06759 25.6667H17.5676V28.0001H7.06759V25.6667ZM17.5676 21.0001V24.5001H7.06759V21.0001C7.06673 20.0063 6.64233 19.0601 5.90092 18.3984V16.3334C5.90092 12.7896 8.77372 9.91675 12.3176 9.91675C15.8612 9.91675 18.7343 12.7896 18.7343 16.3334V18.3984C17.9926 19.0601 17.5682 20.0063 17.5676 21.0001ZM6.02852 33.8334H5.1897L4.89803 32.6667H6.32019L6.02852 33.8334ZM19.4452 33.8334H18.6064L18.3147 32.6667H19.7369L19.4452 33.8334ZM23.4009 21.0001C23.3984 22.1081 22.6193 23.0625 21.5341 23.2867C21.2627 23.3422 21.0676 23.5809 21.0676 23.8578V31.5001H3.56759V23.8584C3.5673 23.5815 3.37219 23.3428 3.10075 23.2873C1.89791 23.0417 1.09098 21.9058 1.25505 20.6893C1.41911 19.4725 2.49833 18.591 3.72339 18.673C4.94845 18.755 5.90035 19.7722 5.90092 21.0001V28.5834C5.90092 28.9056 6.16211 29.1667 6.48425 29.1667H18.1509C18.4731 29.1667 18.7343 28.9056 18.7343 28.5834V21.0001C18.7343 19.7115 19.7787 18.6667 21.0676 18.6667C22.3562 18.6667 23.4009 19.7115 23.4009 21.0001Z" fill="#E09B3D"/>
<path d="M12.7317 13.0025C12.4976 12.7866 12.1373 12.7866 11.9035 13.0025C11.8505 13.0583 11.8089 13.1236 11.7807 13.195C11.7186 13.3363 11.7186 13.497 11.7807 13.6382C11.8106 13.7089 11.8519 13.7741 11.9035 13.8308C12.1333 14.0564 12.5016 14.0564 12.7317 13.8308C12.783 13.7741 12.8243 13.7089 12.8542 13.6382C12.9163 13.497 12.9163 13.3363 12.8542 13.195C12.826 13.1236 12.7844 13.0583 12.7317 13.0025Z" fill="#E09B3D"/>
<path d="M10.9818 15.3358C10.7476 15.1199 10.3873 15.1199 10.1535 15.3358C10.1005 15.3916 10.0589 15.4568 10.0307 15.5283C9.96861 15.6696 9.96861 15.8302 10.0307 15.9715C10.0606 16.0421 10.1019 16.1074 10.1535 16.164C10.2101 16.2156 10.2751 16.2569 10.3457 16.2865C10.5628 16.3797 10.8148 16.331 10.9818 16.164C11.033 16.1074 11.0743 16.0421 11.1042 15.9715C11.1663 15.8302 11.1663 15.6696 11.1042 15.5283C11.076 15.4568 11.0344 15.3916 10.9818 15.3358Z" fill="#E09B3D"/>
<path d="M14.4817 15.3359C14.3148 15.1675 14.0627 15.1171 13.8437 15.208C13.6249 15.2988 13.4828 15.513 13.4842 15.75C13.4831 15.8258 13.4967 15.901 13.5244 15.9716C13.5588 16.0411 13.6021 16.106 13.6534 16.1641C13.8502 16.3601 14.1581 16.3903 14.3891 16.2356C14.6201 16.0813 14.7101 15.7853 14.6042 15.5284C14.576 15.4569 14.5344 15.3917 14.4817 15.3359Z" fill="#E09B3D"/>
<path d="M12.7317 17.6693C12.4976 17.4533 12.1373 17.4533 11.9035 17.6693C11.8519 17.7259 11.8103 17.7912 11.7807 17.8618C11.7186 18.0031 11.7186 18.1637 11.7807 18.305C11.8106 18.3756 11.8519 18.4409 11.9035 18.4975C11.9601 18.5491 12.0251 18.5904 12.0957 18.62C12.3128 18.7132 12.5648 18.6645 12.7317 18.4975C12.783 18.4409 12.8243 18.3756 12.8542 18.305C12.9163 18.1637 12.9163 18.0031 12.8542 17.8618C12.8246 17.7912 12.783 17.7259 12.7317 17.6693Z" fill="#E09B3D"/>
<path d="M9.23151 17.6691C9.17454 17.6178 9.1096 17.5763 9.03896 17.5466C8.82163 17.4552 8.5707 17.5036 8.40322 17.6691C8.35024 17.7249 8.30865 17.7902 8.28046 17.8617C8.21836 18.0029 8.21836 18.1636 8.28046 18.3049C8.31036 18.3755 8.35166 18.4407 8.40322 18.4974C8.4599 18.549 8.52484 18.5903 8.59548 18.6199C8.73676 18.6823 8.89768 18.6823 9.03896 18.6199C9.18536 18.5669 9.301 18.4515 9.35398 18.3049C9.41608 18.1636 9.41608 18.0029 9.35398 17.8617C9.32436 17.791 9.28278 17.7258 9.23151 17.6691Z" fill="#E09B3D"/>
<path d="M16.2315 17.6693C15.9974 17.4533 15.6371 17.4533 15.4032 17.6693C15.3517 17.7259 15.3101 17.7912 15.2805 17.8618C15.2184 18.0031 15.2184 18.1637 15.2805 18.305C15.3104 18.3756 15.3517 18.4409 15.4032 18.4975C15.4599 18.5491 15.5248 18.5904 15.5955 18.62C15.7368 18.6821 15.8977 18.6821 16.039 18.62C16.1854 18.567 16.301 18.4517 16.354 18.305C16.4161 18.1637 16.4161 18.0031 16.354 17.8618C16.3244 17.7912 16.2828 17.7259 16.2315 17.6693Z" fill="#E09B3D"/>
<path d="M10.9818 20.0026C10.953 19.9761 10.9217 19.9527 10.8884 19.9325C10.8585 19.9094 10.8251 19.8918 10.7892 19.8801C10.7542 19.8624 10.7166 19.8505 10.6779 19.8451C10.6032 19.8277 10.5255 19.8277 10.4509 19.8451C10.4144 19.8513 10.3788 19.8633 10.3458 19.8801C10.3084 19.8929 10.2731 19.9106 10.2404 19.9325C10.2099 19.9542 10.1811 19.9775 10.1535 20.0026C10.1005 20.0584 10.0589 20.1236 10.0307 20.1951C9.93788 20.4122 9.9863 20.6639 10.1535 20.8309C10.2102 20.8824 10.2751 20.9237 10.3458 20.9533C10.4153 20.9858 10.491 21.0018 10.5676 21C10.7226 21.0003 10.8713 20.9394 10.9818 20.8309C11.1487 20.6639 11.1971 20.4122 11.1043 20.1951C11.0761 20.1236 11.0345 20.0584 10.9818 20.0026Z" fill="#E09B3D"/>
<path d="M13.8457 19.8801C13.6993 19.9331 13.584 20.0485 13.5307 20.1952C13.4983 20.2644 13.4823 20.3401 13.4843 20.4168C13.4826 20.572 13.5435 20.7212 13.6532 20.8309C13.7631 20.9408 13.9124 21.0018 14.0676 21.0001C14.144 21.0018 14.22 20.9858 14.2892 20.9534C14.4356 20.9004 14.5513 20.785 14.6043 20.6384C14.6367 20.5691 14.6527 20.4934 14.651 20.4168C14.6487 20.2624 14.5883 20.1143 14.4818 20.0026C14.314 19.8371 14.0631 19.7887 13.8457 19.8801Z" fill="#E09B3D"/>
<path d="M12.7318 22.3358C12.703 22.3093 12.6717 22.286 12.6383 22.2658C12.6084 22.2427 12.5751 22.225 12.5392 22.2133C12.5042 22.1957 12.4666 22.1837 12.4279 22.1783C12.3532 22.1609 12.2755 22.1609 12.2008 22.1783C12.1644 22.1846 12.1288 22.1965 12.0957 22.2133C12.0584 22.2262 12.0231 22.2438 11.9904 22.2658C11.9599 22.2874 11.9311 22.3108 11.9035 22.3358C11.8519 22.3925 11.8103 22.4577 11.7807 22.5284C11.7483 22.5976 11.7323 22.6733 11.7343 22.75C11.7314 22.9875 11.8727 23.2028 12.0918 23.2948C12.3108 23.3866 12.5634 23.3364 12.7309 23.1681C12.8984 22.9998 12.9471 22.7468 12.8542 22.5284C12.8246 22.4577 12.783 22.3925 12.7318 22.3358Z" fill="#E09B3D"/>
<path d="M9.23178 22.3358C8.99765 22.1199 8.63734 22.1199 8.4035 22.3358C8.35194 22.3924 8.31036 22.4577 8.28073 22.5283C8.18788 22.7453 8.2363 22.9971 8.4035 23.164C8.46018 23.2156 8.52512 23.2569 8.59576 23.2865C8.81279 23.3797 9.06487 23.3312 9.23178 23.164C9.39869 22.9971 9.44711 22.7453 9.35425 22.5283C9.32463 22.4577 9.28305 22.3924 9.23178 22.3358Z" fill="#E09B3D"/>
<path d="M16.2318 22.3358C16.0626 22.1726 15.8134 22.1247 15.5957 22.2133C15.5245 22.2415 15.459 22.2831 15.4035 22.3358C15.3519 22.3925 15.3103 22.4577 15.2807 22.5283C15.2483 22.5976 15.2323 22.6733 15.2343 22.7499C15.2323 22.945 15.3289 23.1282 15.4912 23.2364C15.6539 23.3447 15.8598 23.3635 16.0392 23.2865C16.1099 23.2569 16.1748 23.2153 16.2318 23.1641C16.3987 22.9972 16.4471 22.7454 16.3542 22.5283C16.3246 22.4577 16.283 22.3925 16.2318 22.3358Z" fill="#E09B3D"/>
<path d="M9.23151 13.0025C8.99738 12.7866 8.63706 12.7866 8.40322 13.0025C8.35024 13.0583 8.30865 13.1236 8.28046 13.195C8.21836 13.3363 8.21836 13.497 8.28046 13.6382C8.31036 13.7089 8.35166 13.7741 8.40322 13.8308C8.63308 14.0564 9.00136 14.0564 9.23151 13.8308C9.28278 13.7741 9.32408 13.7089 9.35398 13.6382C9.41608 13.497 9.41608 13.3363 9.35398 13.195C9.32578 13.1236 9.2842 13.0583 9.23151 13.0025Z" fill="#E09B3D"/>
<path d="M16.0392 12.88C15.8974 12.8165 15.7356 12.8145 15.592 12.874C15.4485 12.9335 15.336 13.0498 15.2807 13.195C15.2511 13.2651 15.2352 13.3403 15.2343 13.4166C15.2323 13.4932 15.2483 13.569 15.2807 13.6382C15.3106 13.7089 15.3519 13.7741 15.4035 13.8308C15.6333 14.0563 16.0016 14.0563 16.2318 13.8308C16.283 13.7741 16.3243 13.7089 16.3543 13.6382C16.3842 13.5681 16.3998 13.493 16.401 13.4166C16.4064 13.1791 16.2614 12.964 16.0392 12.88Z" fill="#E09B3D"/>
<path d="M34.4841 10.5C34.6513 10.5 34.8105 10.4282 34.9213 10.3026C35.0318 10.1773 35.0834 10.0104 35.0626 9.84432L33.8959 0.510986C33.8595 0.219035 33.6114 0 33.3174 0H23.9841C23.6899 0 23.4418 0.219035 23.4053 0.510986L22.2387 9.84432C22.2179 10.0104 22.2694 10.1773 22.3802 10.3026C22.4907 10.4282 22.6499 10.5 22.8174 10.5H28.0674V31.5H26.3174C25.3507 31.5 24.5674 32.2836 24.5674 33.25V34.4167C24.5674 34.7388 24.8286 35 25.1508 35H32.1508C32.4729 35 32.7341 34.7388 32.7341 34.4167V33.25C32.7341 32.2836 31.9505 31.5 30.9841 31.5H29.2341V10.5H34.4841ZM31.5674 33.25V33.8333H25.7341V33.25C25.7341 32.9279 25.9953 32.6667 26.3174 32.6667H30.9841C31.3062 32.6667 31.5674 32.9279 31.5674 33.25ZM24.4991 1.16667H32.8022L33.823 9.33333H23.4782L24.4991 1.16667Z" fill="#E09B3D"/>
</g>
<defs>
<clipPath id="clip0">
<rect width="35" height="35" fill="white"/>
</clipPath>
</defs>
</svg>
