<svg width="35" height="35" viewBox="0 0 35 35" fill="none" xmlns="http://www.w3.org/2000/svg">
<path d="M7.12305 19.553C7.07872 19.553 7.03359 19.549 6.989 19.5402C6.94547 19.5311 6.90221 19.5183 6.86136 19.5012C6.82024 19.4841 6.78072 19.4627 6.74306 19.4382C6.70621 19.4131 6.67043 19.3842 6.63919 19.3527C6.60768 19.3215 6.57964 19.2865 6.55428 19.2488C6.52971 19.212 6.50861 19.1725 6.49152 19.1313C6.47443 19.0897 6.46135 19.0464 6.45254 19.0034C6.44373 18.9591 6.43945 18.914 6.43945 18.8694C6.43945 18.8251 6.44373 18.7799 6.45254 18.7361C6.46135 18.6923 6.47443 18.6494 6.49152 18.6085C6.50861 18.5668 6.52971 18.5271 6.55428 18.4902C6.57964 18.4525 6.60768 18.4178 6.63919 18.3863C6.6707 18.3548 6.70621 18.326 6.74306 18.3014C6.78072 18.2768 6.82024 18.2557 6.86136 18.2387C6.90221 18.2216 6.94547 18.2085 6.989 18.1997C7.21117 18.1545 7.44722 18.2277 7.60637 18.3863C7.63788 18.4178 7.66645 18.4525 7.69128 18.4902C7.71585 18.5271 7.73695 18.5668 7.75404 18.6085C7.77113 18.6494 7.78421 18.6923 7.79302 18.7361C7.80183 18.7799 7.80664 18.8251 7.80664 18.8694C7.80664 18.914 7.80183 18.9591 7.79302 19.0034C7.78421 19.0464 7.77113 19.0897 7.75404 19.1313C7.73695 19.1725 7.71585 19.212 7.69128 19.2488C7.66645 19.2865 7.63788 19.3215 7.60637 19.3527C7.47926 19.4806 7.30276 19.553 7.12305 19.553Z" fill="#E09B3D"/>
<path d="M17.9261 26.1217H17.925C17.0668 26.1214 16.1511 26.0344 15.2035 25.8624C12.2653 25.3297 9.68958 23.6872 7.75469 21.1125C7.52771 20.8107 7.58859 20.3822 7.89034 20.1555C8.19235 19.9287 8.62066 19.9894 8.84764 20.2911C10.5967 22.6185 12.817 24.0405 15.4473 24.5171C16.3148 24.6747 17.1485 24.7542 17.925 24.7545C18.3026 24.7545 18.6091 25.0605 18.6091 25.4381C18.6091 25.8157 18.3037 26.1217 17.9261 26.1217Z" fill="#E09B3D"/>
<path d="M29.1662 22.5607C29.178 22.5252 29.1895 22.4892 29.2007 22.4534C30.2653 19.0504 28.4439 15.6746 27.0385 13.7293C27.2994 13.3864 27.5285 13.023 27.724 12.6433L29.2108 13.089C29.2319 13.0954 29.2533 13.1007 29.2746 13.1047C30.0661 13.2609 30.0728 13.2609 30.154 13.2609C30.5436 13.2609 30.9177 13.0759 31.1561 12.7642C31.4221 12.4139 31.4862 11.9431 31.3233 11.5348L30.9097 10.5017L31.6333 9.69742C31.6643 9.66297 31.6915 9.62532 31.715 9.58527C31.9692 9.15081 31.9415 8.60821 31.6434 8.20259C31.3492 7.80312 30.8506 7.61433 30.3676 7.71713L28.4367 8.04665C27.85 4.57047 24.8179 1.91406 21.177 1.91406C17.1173 1.91406 13.8147 5.21614 13.8147 9.27498C13.8147 10.5564 14.1472 11.8027 14.7686 12.8999C14.7141 12.8959 14.6593 12.8916 14.6043 12.8876C11.1207 12.6334 7.94891 12.7904 7.8154 12.7971C7.77908 12.799 7.7433 12.8038 7.70805 12.8112L5.64526 12.2697L4.02039 11.7047C3.8081 11.631 3.57311 11.6662 3.3918 11.7989C3.21049 11.9316 3.10608 12.145 3.11249 12.3698C3.1205 12.6534 3.3205 18.7449 5.52589 22.6542C3.98594 23.133 2.74239 23.6959 1.82327 24.3311C0.613365 25.1669 0 26.1055 0 27.121C0 28.8952 1.86787 30.4263 5.40199 31.5487C8.64346 32.578 12.9399 33.145 17.5 33.145C22.0601 33.145 26.3565 32.578 29.598 31.5487C33.1321 30.4263 35 28.8952 35 27.121C35 25.2876 32.9343 23.6777 29.1662 22.5607ZM29.609 9.90356C29.4349 10.0972 29.3857 10.3727 29.4824 10.6147L29.9764 11.8489C29.8554 11.8254 29.7104 11.7971 29.5718 11.7698L28.2356 11.3696C28.4223 10.7399 28.5251 10.0833 28.5379 9.41624L30.3209 9.11209L29.609 9.90356ZM14.517 14.2521C15.0799 14.2935 15.6022 14.3421 16.0874 14.3966C16.1069 14.3998 16.1267 14.4019 16.1464 14.4033C20.5679 14.9098 21.8584 15.9285 22.2304 16.5304C22.9834 17.7483 22.9813 19.3126 22.2251 20.4224C21.1754 21.9623 18.9331 22.5087 15.9112 21.9607C13.4583 21.5158 11.475 19.9551 10.0171 17.3214C9.33186 16.0837 8.92731 14.8837 8.71529 14.1333C9.88861 14.1023 12.1544 14.0791 14.517 14.2521ZM5.22148 13.5699C5.2383 13.5757 5.25513 13.5808 5.27248 13.5854L7.29389 14.1159C7.48428 14.8722 7.93156 16.3662 8.80074 17.947C10.4448 20.9364 12.8193 22.7896 15.6674 23.306C16.5536 23.4668 17.3462 23.5367 18.0552 23.5367C21.2152 23.5367 22.7057 22.1447 23.3549 21.1922C24.4267 19.6194 24.4419 17.5072 23.3933 15.8113C22.5372 14.4268 20.2872 13.5255 16.5384 13.0724C15.6618 12.0032 15.1819 10.6646 15.1819 9.27498C15.1819 5.96996 17.8712 3.28125 21.177 3.28125C24.4828 3.28125 27.1721 5.96996 27.1721 9.27498C27.1721 10.7444 26.6351 12.1578 25.6596 13.255C25.4414 13.5004 25.4286 13.8665 25.6294 14.1266C26.6441 15.442 28.8965 18.8469 27.896 22.0454C26.7445 25.7258 22.5917 28.301 18.0218 28.1654C13.4986 28.0324 10.0112 26.3282 7.36065 22.9554C5.31254 20.3489 4.70932 15.4407 4.54082 13.3333L5.22148 13.5699ZM29.1841 30.2458C26.073 31.2336 21.9236 31.7778 17.5 31.7778C13.0764 31.7778 8.92704 31.2336 5.81589 30.2458C3.03024 29.3612 1.36719 28.1929 1.36719 27.121C1.36719 25.9848 3.25855 24.7367 6.3195 23.843C9.19247 27.4749 13.1159 29.3889 17.9815 29.5321C18.1083 29.5355 18.2341 29.5374 18.3604 29.5374C22.8053 29.5371 26.8602 27.2364 28.6319 23.8288C31.7268 24.7253 33.6328 25.9739 33.6328 27.121C33.6328 28.1929 31.9698 29.3612 29.1841 30.2458Z" fill="#E09B3D"/>
<path d="M16.2756 20.6394C16.2352 20.6394 16.1941 20.6356 16.153 20.6284C14.1487 20.265 12.5006 18.963 11.2543 16.7587C11.202 16.6665 11.1518 16.5749 11.1032 16.4833C10.9262 16.1501 11.0527 15.7362 11.386 15.5589C11.7195 15.3816 12.1331 15.5084 12.3104 15.8417C12.3537 15.9229 12.3983 16.0043 12.4445 16.086C13.4814 17.92 14.8109 18.9958 16.3968 19.2831C16.7682 19.3504 17.0147 19.7061 16.9474 20.0778C16.8876 20.4079 16.5997 20.6394 16.2756 20.6394Z" fill="#E09B3D"/>
<path d="M23.9128 9.5051C23.5352 9.5051 23.2292 9.19909 23.2292 8.82151C23.2292 8.72084 23.0852 8.60815 22.8922 8.60815C22.6994 8.60815 22.5552 8.72084 22.5552 8.82151C22.5552 9.19909 22.2492 9.5051 21.8716 9.5051C21.494 9.5051 21.188 9.19909 21.188 8.82151C21.188 7.9502 21.9525 7.24097 22.8922 7.24097C23.8318 7.24097 24.5963 7.9502 24.5963 8.82151C24.5966 9.19909 24.2903 9.5051 23.9128 9.5051Z" fill="#E09B3D"/>
</svg>
