<svg width="20" height="20" viewBox="0 0 20 20" fill="none" xmlns="http://www.w3.org/2000/svg">
<path fill-rule="evenodd" clip-rule="evenodd" d="M19.2167 19.2835C19.1957 19.2835 19.1747 19.2808 19.1532 19.2745L15.205 18.2144C15.1264 18.1934 15.046 18.1832 14.9656 18.1832C14.8012 18.1832 14.6382 18.2261 14.4908 18.306C13.1697 19.0239 11.6614 19.4376 10.0526 19.4376C9.30312 19.4376 8.53133 19.3478 7.74749 19.1566C4.84837 18.4503 1.76167 15.4518 1.01534 12.5569C-0.598354 6.29725 4.07167 0.674602 10.0526 0.675049C10.8873 0.675496 11.748 0.784946 12.6198 1.01725C15.816 1.86963 18.3216 4.44999 19.1171 7.6674C19.7039 10.0436 19.3837 12.3197 18.4364 14.2286C18.3301 14.4422 18.2988 14.6843 18.3609 14.9148L19.4471 18.9801C19.4896 19.1374 19.3681 19.2835 19.2167 19.2835ZM18.2516 7.88228C17.5276 4.95123 15.2819 2.65186 12.3908 1.88079C11.6146 1.67395 10.828 1.56897 10.0527 1.56852H10.0518C7.4126 1.56852 4.97129 2.76936 3.35313 4.86367C1.73273 6.96065 1.19543 9.68352 1.87834 12.3331C2.534 14.876 5.37505 17.6591 7.95839 18.2886C8.6547 18.4584 9.35949 18.5441 10.0527 18.5441C11.4649 18.5441 12.8156 18.1997 14.0661 17.5207C14.3448 17.3692 14.6557 17.2897 14.9657 17.2897C15.1251 17.2897 15.2828 17.3102 15.436 17.3513L18.2944 18.1193L17.4999 15.1462C17.3838 14.7116 17.4329 14.2443 17.6383 13.8306C18.5486 11.9976 18.7603 9.94085 18.2516 7.88228Z" fill="#262626"/>
</svg>
