<svg width="24" height="19" viewBox="0 0 24 19" fill="none" xmlns="http://www.w3.org/2000/svg">
<path fill-rule="evenodd" clip-rule="evenodd" d="M22.999 0.879799C22.9059 0.713261 22.7296 0.609634 22.5367 0.608032L1.06439 0.616819C0.834804 0.613368 0.626666 0.754416 0.545738 0.968291C0.46481 1.18217 0.528838 1.42197 0.705287 1.56584L8.2625 7.79749L8.17854 17.5923C8.17533 17.8199 8.31787 18.0231 8.53373 18.0986C8.74959 18.1741 8.99143 18.1053 9.13636 17.9272L22.9452 1.48413C23.0876 1.31187 23.109 1.07152 22.999 0.879799ZM20.1115 1.6838L8.8947 6.91427L2.55224 1.68846L20.1115 1.6838ZM9.27181 16.0987L20.5623 2.65052L9.34547 7.881L9.27181 16.0987Z" fill="#272525"/>
</svg>
