<svg width="23" height="19" viewBox="0 0 23 19" fill="none" xmlns="http://www.w3.org/2000/svg">
<path fill-rule="evenodd" clip-rule="evenodd" d="M11.5698 18.4377C11.8334 18.4377 12.0969 18.355 12.3203 18.1907C14.3913 16.6644 20.1246 12.2999 21.4827 9.78634C23.1476 6.70475 22.1595 2.76357 19.2754 0.984546C18.327 0.399576 17.2928 0.121826 16.2725 0.121826C14.4834 0.121826 12.7367 0.975615 11.5698 2.52601C10.4038 0.976062 8.65669 0.121826 6.8671 0.121826C5.84677 0.121826 4.81259 0.399576 3.86464 0.984546C0.980116 2.76357 -0.00759876 6.70475 1.65736 9.78634C3.01541 12.2999 8.74827 16.6644 10.8193 18.1907C11.0427 18.355 11.3062 18.4377 11.5698 18.4377ZM16.2724 1.00551C17.1546 1.00551 18.0293 1.25736 18.8022 1.73426C21.2913 3.26948 22.1397 6.6949 20.6945 9.37014C19.4053 11.756 13.55 16.1826 11.7863 17.4825C11.7059 17.5414 11.6241 17.5539 11.5696 17.5539C11.5151 17.5539 11.4334 17.5414 11.3534 17.4825C9.5893 16.1826 3.73449 11.756 2.44523 9.37014C1.00007 6.6949 1.8484 3.26948 4.33712 1.73426C5.10996 1.25736 5.98466 1.00551 6.86694 1.00551C8.42066 1.00551 9.87387 1.75213 10.8527 3.05335L11.5696 4.00583L12.2862 3.05335C13.2659 1.75168 14.7186 1.00551 16.2724 1.00551Z" fill="#262626"/>
</svg>
