<svg width="125" height="60" viewBox="0 0 125 60" fill="none" xmlns="http://www.w3.org/2000/svg">
<path d="M29.7031 12.7373C29.6387 14.1963 29.2285 15.3008 28.4727 16.0508C27.7168 16.8008 26.6504 17.1758 25.2734 17.1758C23.8262 17.1758 22.7158 16.7012 21.9424 15.752C21.1748 14.7969 20.791 13.4375 20.791 11.6738V9.52051C20.791 7.7627 21.1895 6.40918 21.9863 5.45996C22.7832 4.50488 23.8906 4.02734 25.3086 4.02734C26.7031 4.02734 27.7607 4.41699 28.4814 5.19629C29.208 5.97559 29.6211 7.09473 29.7207 8.55371H27.1279C27.1045 7.65137 26.9639 7.03027 26.7061 6.69043C26.4541 6.34473 25.9883 6.17188 25.3086 6.17188C24.6172 6.17188 24.1279 6.41504 23.8408 6.90137C23.5537 7.38184 23.4014 8.17578 23.3838 9.2832V11.7002C23.3838 12.9717 23.5244 13.8447 23.8057 14.3193C24.0928 14.7939 24.582 15.0312 25.2734 15.0312C25.9531 15.0312 26.4219 14.8672 26.6797 14.5391C26.9375 14.2051 27.084 13.6045 27.1191 12.7373H29.7031ZM33.8779 14.8555H38.4131V17H31.2939V4.20312H33.8779V14.8555ZM46.5166 11.4629H42.4912V14.8555H47.2549V17H39.9072V4.20312H47.2373V6.35645H42.4912V9.37988H46.5166V11.4629ZM52.915 13.4844L55.0684 4.20312H57.9512L54.2598 17H51.5703L47.9053 4.20312H50.7705L52.915 13.4844ZM65.7646 11.4629H61.7393V14.8555H66.5029V17H59.1553V4.20312H66.4854V6.35645H61.7393V9.37988H65.7646V11.4629ZM71.873 12.3242H70.5898V17H68.0059V4.20312H72.1279C73.4229 4.20312 74.4219 4.54004 75.125 5.21387C75.834 5.88184 76.1885 6.83398 76.1885 8.07031C76.1885 9.76953 75.5703 10.959 74.334 11.6387L76.5752 16.877V17H73.7979L71.873 12.3242ZM70.5898 10.1709H72.0576C72.5732 10.1709 72.96 10.001 73.2178 9.66113C73.4756 9.31543 73.6045 8.85547 73.6045 8.28125C73.6045 6.99805 73.1035 6.35645 72.1016 6.35645H70.5898V10.1709ZM29.7295 36.5498C29.2314 37.0889 28.6191 37.4961 27.8926 37.7715C27.1719 38.041 26.3809 38.1758 25.5195 38.1758C24.0488 38.1758 22.9062 37.7217 22.0918 36.8135C21.2773 35.8994 20.8584 34.5723 20.835 32.832V30.5293C20.835 28.7656 21.2188 27.4092 21.9863 26.46C22.7598 25.5049 23.8848 25.0273 25.3613 25.0273C26.75 25.0273 27.7959 25.3701 28.499 26.0557C29.208 26.7412 29.6182 27.8164 29.7295 29.2812H27.2158C27.1455 28.4668 26.9756 27.9131 26.7061 27.6201C26.4365 27.3213 26.0146 27.1719 25.4404 27.1719C24.7432 27.1719 24.2363 27.4268 23.9199 27.9365C23.6035 28.4463 23.4395 29.2578 23.4277 30.3711V32.6914C23.4277 33.8574 23.6006 34.707 23.9463 35.2402C24.2979 35.7676 24.8721 36.0312 25.6689 36.0312C26.1787 36.0312 26.5918 35.9287 26.9082 35.7236L27.1367 35.5654V33.2188H25.3262V31.2676H29.7295V36.5498ZM35.4336 33.3242H34.1504V38H31.5664V25.2031H35.6885C36.9834 25.2031 37.9824 25.54 38.6855 26.2139C39.3945 26.8818 39.749 27.834 39.749 29.0703C39.749 30.7695 39.1309 31.959 37.8945 32.6387L40.1357 37.877V38H37.3584L35.4336 33.3242ZM34.1504 31.1709H35.6182C36.1338 31.1709 36.5205 31.001 36.7783 30.6611C37.0361 30.3154 37.165 29.8555 37.165 29.2812C37.165 27.998 36.6641 27.3564 35.6621 27.3564H34.1504V31.1709ZM47.6328 35.3809H44.1084L43.4229 38H40.6895L44.6885 25.2031H47.0527L51.0781 38H48.3184L47.6328 35.3809ZM44.6709 33.2275H47.0615L45.8662 28.666L44.6709 33.2275ZM52.2822 38V25.2031H55.666C57.1602 25.2031 58.3496 25.6777 59.2344 26.627C60.125 27.5762 60.5791 28.877 60.5967 30.5293V32.6035C60.5967 34.2852 60.1514 35.6064 59.2607 36.5674C58.376 37.5225 57.1543 38 55.5957 38H52.2822ZM54.8662 27.3564V35.8555H55.6396C56.501 35.8555 57.1074 35.6299 57.459 35.1787C57.8105 34.7217 57.9951 33.9365 58.0127 32.8232V30.5996C58.0127 29.4043 57.8457 28.5723 57.5117 28.1035C57.1777 27.6289 56.6094 27.3799 55.8066 27.3564H54.8662ZM23.6123 54.5V59H21.0283V46.2031H25.3877C26.6533 46.2031 27.6611 46.5957 28.4111 47.3809C29.167 48.166 29.5449 49.1855 29.5449 50.4395C29.5449 51.6934 29.1729 52.6836 28.4287 53.4102C27.6846 54.1367 26.6533 54.5 25.335 54.5H23.6123ZM23.6123 52.3467H25.3877C25.8799 52.3467 26.2607 52.1855 26.5303 51.8633C26.7998 51.541 26.9346 51.0723 26.9346 50.457C26.9346 49.8184 26.7969 49.3115 26.5215 48.9365C26.2461 48.5557 25.877 48.3623 25.4141 48.3564H23.6123V52.3467ZM35.1523 54.3242H33.8691V59H31.2852V46.2031H35.4072C36.7021 46.2031 37.7012 46.54 38.4043 47.2139C39.1133 47.8818 39.4678 48.834 39.4678 50.0703C39.4678 51.7695 38.8496 52.959 37.6133 53.6387L39.8545 58.877V59H37.0771L35.1523 54.3242ZM33.8691 52.1709H35.3369C35.8525 52.1709 36.2393 52.001 36.4971 51.6611C36.7549 51.3154 36.8838 50.8555 36.8838 50.2812C36.8838 48.998 36.3828 48.3564 35.3809 48.3564H33.8691V52.1709ZM47.8525 53.4629H43.8271V56.8555H48.5908V59H41.2432V46.2031H48.5732V48.3564H43.8271V51.3799H47.8525V53.4629ZM53.46 46.2031L55.877 55.458L58.2852 46.2031H61.6602V59H59.0674V55.5371L59.3047 50.2021L56.7471 59H54.9893L52.4316 50.2021L52.6689 55.5371V59H50.085V46.2031H53.46ZM66.4414 59H63.8574V46.2031H66.4414V59ZM76.9355 46.2031V55.0625C76.9238 56.3926 76.5576 57.4121 75.8369 58.1211C75.1162 58.8242 74.082 59.1758 72.7344 59.1758C71.3633 59.1758 70.3145 58.8184 69.5879 58.1035C68.8672 57.3887 68.5068 56.3545 68.5068 55.001V46.2031H71.1084V55.0098C71.1084 55.7363 71.2256 56.2549 71.46 56.5654C71.6943 56.876 72.1191 57.0312 72.7344 57.0312C73.3496 57.0312 73.7715 56.8789 74 56.5742C74.2285 56.2637 74.3457 55.7568 74.3516 55.0537V46.2031H76.9355ZM82.2705 46.2031L84.6875 55.458L87.0957 46.2031H90.4707V59H87.8779V55.5371L88.1152 50.2021L85.5576 59H83.7998L81.2422 50.2021L81.4795 55.5371V59H78.8955V46.2031H82.2705Z" fill="white"/>
<rect y="4" width="15" height="55" fill="white"/>
</svg>
