<svg width="18" height="15" viewBox="0 0 18 15" fill="none" xmlns="http://www.w3.org/2000/svg">
<path d="M17.0192 8.65385H16.7308V7.78846C16.73 7.21565 16.3904 6.69757 15.8654 6.46846V2.01923C15.8653 1.90457 15.7974 1.80087 15.6923 1.755C15.8048 1.57464 15.8648 1.36644 15.8654 1.15385C15.8654 0.516599 15.3488 0 14.7115 0C14.0743 0 13.5577 0.516599 13.5577 1.15385C13.5589 1.357 13.6143 1.55614 13.7181 1.73077H3.58962C3.69343 1.55614 3.74881 1.357 3.75 1.15385C3.75 0.516599 3.2334 0 2.59615 0C1.95891 0 1.44231 0.516599 1.44231 1.15385C1.44292 1.36644 1.50285 1.57464 1.61538 1.755C1.51031 1.80087 1.44238 1.90457 1.44231 2.01923V6.46846C0.917308 6.69757 0.57768 7.21565 0.576923 7.78846V8.65385H0.288462C0.129159 8.65385 0 8.783 0 8.94231V12.9808C0 13.1401 0.129159 13.2692 0.288462 13.2692H0.576923V14.7115C0.576923 14.8708 0.706082 15 0.865385 15H2.01923C2.17853 15 2.30769 14.8708 2.30769 14.7115V13.2692H15V14.7115C15 14.8708 15.1292 15 15.2885 15H16.4423C16.6016 15 16.7308 14.8708 16.7308 14.7115V13.2692H17.0192C17.1785 13.2692 17.3077 13.1401 17.3077 12.9808V8.94231C17.3077 8.783 17.1785 8.65385 17.0192 8.65385ZM14.7115 0.576923C15.0302 0.576923 15.2885 0.835204 15.2885 1.15385C15.2885 1.47249 15.0302 1.73077 14.7115 1.73077C14.3929 1.73077 14.1346 1.47249 14.1346 1.15385C14.1346 0.835204 14.3929 0.576923 14.7115 0.576923ZM2.59615 0.576923C2.9148 0.576923 3.17308 0.835204 3.17308 1.15385C3.17308 1.47249 2.9148 1.73077 2.59615 1.73077C2.27751 1.73077 2.01923 1.47249 2.01923 1.15385C2.01923 0.835204 2.27751 0.576923 2.59615 0.576923ZM2.01923 2.30769H15.2885V6.34615H14.1271C14.318 6.09797 14.422 5.79389 14.4231 5.48077V4.90385C14.4221 4.10769 13.7769 3.46248 12.9808 3.46154H10.6731C9.87692 3.46248 9.23171 4.10769 9.23077 4.90385V5.48077C9.23181 5.79389 9.33584 6.09797 9.52673 6.34615H7.78096C7.97185 6.09797 8.07588 5.79389 8.07692 5.48077V4.90385C8.07599 4.10769 7.43077 3.46248 6.63462 3.46154H4.32692C3.53077 3.46248 2.88555 4.10769 2.88462 4.90385V5.48077C2.88566 5.79389 2.98969 6.09797 3.18058 6.34615H2.01923V2.30769ZM13.8462 4.90385V5.48077C13.8462 5.95871 13.4587 6.34615 12.9808 6.34615H10.6731C10.1951 6.34615 9.80769 5.95871 9.80769 5.48077V4.90385C9.80769 4.4259 10.1951 4.03846 10.6731 4.03846H12.9808C13.4587 4.03846 13.8462 4.4259 13.8462 4.90385ZM7.5 4.90385V5.48077C7.5 5.95871 7.11256 6.34615 6.63462 6.34615H4.32692C3.84898 6.34615 3.46154 5.95871 3.46154 5.48077V4.90385C3.46154 4.4259 3.84898 4.03846 4.32692 4.03846H6.63462C7.11256 4.03846 7.5 4.4259 7.5 4.90385ZM1.15385 7.78846C1.15385 7.31052 1.54129 6.92308 2.01923 6.92308H15.2885C15.7664 6.92308 16.1538 7.31052 16.1538 7.78846V8.65385H1.15385V7.78846ZM1.73077 14.4231H1.15385V13.2692H1.73077V14.4231ZM16.1538 14.4231H15.5769V13.2692H16.1538V14.4231ZM16.7308 12.6923H0.576923V9.23077H16.7308V12.6923Z" fill="black"/>
</svg>
