<svg width="17" height="16" viewBox="0 0 17 16" fill="none" xmlns="http://www.w3.org/2000/svg">
<path d="M3.4211 9.11235C3.39981 9.11235 3.37813 9.11043 3.35672 9.1062C3.33581 9.10184 3.31503 9.09568 3.29541 9.08747C3.27566 9.07927 3.25668 9.06901 3.2386 9.05721C3.2209 9.04515 3.20371 9.0313 3.18871 9.01617C3.17357 9.00116 3.16011 8.98436 3.14792 8.96627C3.13612 8.94858 3.12599 8.92959 3.11778 8.90984C3.10957 8.88984 3.10329 8.86906 3.09906 8.84841C3.09483 8.82712 3.09277 8.80545 3.09277 8.78403C3.09277 8.76274 3.09483 8.74106 3.09906 8.72003C3.10329 8.699 3.10957 8.67835 3.11778 8.65873C3.12599 8.63872 3.13612 8.61961 3.14792 8.60191C3.16011 8.58383 3.17357 8.56715 3.18871 8.55202C3.20384 8.53689 3.2209 8.52303 3.2386 8.51123C3.25668 8.49944 3.27566 8.4893 3.29541 8.4811C3.31503 8.47289 3.33581 8.4666 3.35672 8.46237C3.46342 8.4407 3.5768 8.47584 3.65324 8.55202C3.66837 8.56715 3.68209 8.58383 3.69402 8.60191C3.70582 8.61961 3.71595 8.63872 3.72416 8.65873C3.73237 8.67835 3.73865 8.699 3.74288 8.72003C3.74712 8.74106 3.74942 8.76274 3.74942 8.78403C3.74942 8.80545 3.74712 8.82712 3.74288 8.84841C3.73865 8.86906 3.73237 8.88984 3.72416 8.90984C3.71595 8.92959 3.70582 8.94858 3.69402 8.96627C3.68209 8.98436 3.66837 9.00116 3.65324 9.01617C3.59219 9.0776 3.50741 9.11235 3.4211 9.11235Z" fill="black"/>
<path d="M8.60987 12.2673H8.60936C8.19716 12.2672 7.75738 12.2254 7.30221 12.1428C5.89105 11.887 4.65393 11.0981 3.72461 9.86146C3.6156 9.71654 3.64484 9.51069 3.78977 9.40181C3.93482 9.29292 4.14054 9.32203 4.24955 9.46696C5.0896 10.5848 6.15602 11.2677 7.41931 11.4967C7.836 11.5723 8.2364 11.6106 8.60936 11.6107C8.79071 11.6107 8.93794 11.7577 8.93794 11.939C8.93794 12.1204 8.79122 12.2673 8.60987 12.2673Z" fill="black"/>
<path d="M14.0084 10.5571C14.014 10.54 14.0195 10.5227 14.0249 10.5055C14.5362 8.87109 13.6614 7.24972 12.9864 6.3154C13.1117 6.15073 13.2218 5.97618 13.3157 5.7938L14.0298 6.00785C14.0399 6.01093 14.0502 6.0135 14.0604 6.01542C14.4406 6.09045 14.4438 6.09045 14.4828 6.09045C14.6699 6.09045 14.8496 6.00157 14.9641 5.8519C15.0918 5.68363 15.1226 5.45752 15.0444 5.26143L14.8457 4.76522L15.1933 4.37892C15.2082 4.36238 15.2212 4.34429 15.2325 4.32506C15.3546 4.11639 15.3413 3.85578 15.1981 3.66097C15.0568 3.4691 14.8174 3.37843 14.5854 3.4278L13.658 3.58607C13.3762 1.91648 11.9199 0.640625 10.1712 0.640625C8.22135 0.640625 6.63513 2.22659 6.63513 4.17603C6.63513 4.79151 6.7948 5.39006 7.09325 5.91705C7.06708 5.91513 7.04079 5.91308 7.01437 5.91115C5.34119 5.78906 3.81781 5.86447 3.75369 5.86767C3.73624 5.86857 3.71906 5.87088 3.70213 5.87447L2.71138 5.61438L1.93097 5.34299C1.82901 5.3076 1.71614 5.32453 1.62906 5.38827C1.54198 5.45201 1.49183 5.55448 1.49491 5.66247C1.49876 5.79867 1.59482 8.72437 2.65405 10.602C1.91442 10.8319 1.31715 11.1023 0.875706 11.4074C0.294595 11.8088 0 12.2596 0 12.7474C0 13.5995 0.897125 14.3349 2.59454 14.8739C4.1514 15.3683 6.21498 15.6406 8.40514 15.6406C10.5953 15.6406 12.6589 15.3683 14.2157 14.8739C15.9132 14.3349 16.8103 13.5995 16.8103 12.7474C16.8103 11.8668 15.8181 11.0936 14.0084 10.5571ZM14.221 4.47793C14.1374 4.57092 14.1138 4.70327 14.1602 4.81947L14.3975 5.41225C14.3394 5.40096 14.2697 5.38737 14.2032 5.37429L13.5614 5.18204C13.651 4.87962 13.7004 4.56425 13.7066 4.24387L14.5629 4.09779L14.221 4.47793ZM6.97243 6.56652C7.24279 6.5864 7.49365 6.60974 7.72669 6.6359C7.73605 6.63744 7.74554 6.63847 7.75503 6.63911C9.87863 6.88241 10.4985 7.37169 10.6771 7.66077C11.0388 8.24573 11.0378 8.99703 10.6746 9.53005C10.1704 10.2697 9.09347 10.5321 7.64204 10.2689C6.46391 10.0552 5.51138 9.3056 4.81113 8.04065C4.48203 7.4462 4.28773 6.86984 4.1859 6.50945C4.74944 6.49457 5.83766 6.48341 6.97243 6.56652ZM2.50784 6.23884C2.51592 6.24166 2.524 6.24409 2.53234 6.24627L3.50321 6.50111C3.59465 6.86432 3.80948 7.58189 4.22694 8.34115C5.01659 9.77693 6.15701 10.667 7.52494 10.915C7.95061 10.9922 8.33127 11.0259 8.67178 11.0259C10.1895 11.0259 10.9054 10.3573 11.2172 9.8998C11.732 9.14439 11.7393 8.12992 11.2357 7.31539C10.8245 6.6504 9.74384 6.21755 7.9433 5.9999C7.52225 5.48638 7.29178 4.84345 7.29178 4.17603C7.29178 2.58865 8.58341 1.29728 10.1712 1.29728C11.7589 1.29728 13.0506 2.58865 13.0506 4.17603C13.0506 4.8818 12.7926 5.56064 12.3241 6.08763C12.2194 6.20549 12.2132 6.38132 12.3097 6.50624C12.797 7.13801 13.8788 8.77336 13.3983 10.3096C12.8452 12.0773 10.8507 13.3141 8.65574 13.249C6.48328 13.1851 4.80831 12.3666 3.53527 10.7466C2.55158 9.49478 2.26186 7.13737 2.18093 6.1252L2.50784 6.23884ZM14.0169 14.2482C12.5227 14.7226 10.5298 14.984 8.40514 14.984C6.28051 14.984 4.2876 14.7226 2.79333 14.2482C1.45541 13.8233 0.656652 13.2622 0.656652 12.7474C0.656652 12.2017 1.56506 11.6022 3.03522 11.173C4.41508 12.9173 6.29949 13.8366 8.63638 13.9054C8.6973 13.907 8.75771 13.9079 8.81837 13.9079C10.9533 13.9078 12.9008 12.8028 13.7517 11.1662C15.2382 11.5967 16.1536 12.1964 16.1536 12.7474C16.1536 13.2622 15.3549 13.8233 14.0169 14.2482Z" fill="black"/>
<path d="M7.81711 9.63438C7.79775 9.63438 7.77799 9.63258 7.75824 9.62912C6.79558 9.45457 6.00401 8.82921 5.40545 7.77049C5.38032 7.72624 5.35621 7.68225 5.33286 7.63826C5.24783 7.4782 5.30862 7.27941 5.46868 7.19425C5.62887 7.10909 5.82753 7.17001 5.91269 7.33007C5.93347 7.36906 5.95489 7.40817 5.97708 7.44742C6.47508 8.32825 7.11365 8.84498 7.87534 8.98298C8.05374 9.0153 8.17211 9.18613 8.13979 9.36466C8.11107 9.52318 7.97281 9.63438 7.81711 9.63438Z" fill="black"/>
<path d="M11.4852 4.28667C11.3039 4.28667 11.1569 4.13969 11.1569 3.95834C11.1569 3.90999 11.0877 3.85587 10.995 3.85587C10.9024 3.85587 10.8332 3.90999 10.8332 3.95834C10.8332 4.13969 10.6862 4.28667 10.5048 4.28667C10.3235 4.28667 10.1765 4.13969 10.1765 3.95834C10.1765 3.53986 10.5437 3.19922 10.995 3.19922C11.4463 3.19922 11.8135 3.53986 11.8135 3.95834C11.8137 4.13969 11.6665 4.28667 11.4852 4.28667Z" fill="black"/>
</svg>
