<svg width="16" height="21" viewBox="0 0 16 21" fill="none" xmlns="http://www.w3.org/2000/svg">
<path fill-rule="evenodd" clip-rule="evenodd" d="M8.05117 20.6146C9.43429 19.4624 15.5556 14.1556 15.5556 8.6352C15.5556 4.19046 12.0733 0.857422 7.77778 0.857422C3.48223 0.857422 -8.68624e-05 4.19046 1.62504e-09 8.6352C0.000107887 14.1556 6.12126 19.4624 7.50438 20.6146C7.66581 20.7491 7.7627 20.8298 7.77778 20.8515C7.77503 20.8554 7.77778 20.8574 7.77778 20.8574C7.77778 20.8574 7.78052 20.8554 7.77778 20.8515C7.79286 20.8298 7.88974 20.7491 8.05117 20.6146ZM7.77783 11.6652C10.2324 11.6652 10.8081 9.67536 10.8081 8.6349C10.8081 7.59445 10.2324 5.6046 7.77783 5.6046C5.32323 5.6046 4.74752 7.59445 4.74752 8.6349C4.74752 11.0895 6.73737 11.6652 7.77783 11.6652Z" fill="white"/>
</svg>
