<svg width="9" height="15" viewBox="0 0 9 15" fill="none" xmlns="http://www.w3.org/2000/svg">
<path d="M4.35092 0H0.283456C0.127004 0 0 0.127004 0 0.283456V14.7165C0 14.873 0.127004 15 0.283456 15H4.35092C4.50737 15 4.63437 14.873 4.63437 14.7165V0.283456C4.63437 0.127004 4.50737 0 4.35092 0ZM4.06746 1.91325H3.36737C3.21092 1.91325 3.08391 2.04026 3.08391 2.19671C3.08391 2.35316 3.21092 2.48017 3.36737 2.48017H4.06746V3.42687H3.36737C3.21092 3.42687 3.08391 3.55388 3.08391 3.71033C3.08391 3.86678 3.21092 3.99379 3.36737 3.99379H4.06746V4.949H2.72962C2.57317 4.949 2.44616 5.076 2.44616 5.23245C2.44616 5.3889 2.57317 5.51591 2.72962 5.51591H4.06746V6.46262H3.36737C3.21092 6.46262 3.08391 6.58962 3.08391 6.74607C3.08391 6.90253 3.21092 7.02953 3.36737 7.02953H4.06746V7.97907H3.36737C3.21092 7.97907 3.08391 8.10608 3.08391 8.26253C3.08391 8.41898 3.21092 8.54598 3.36737 8.54598H4.06746V9.48419H2.72962C2.57317 9.48419 2.44616 9.6112 2.44616 9.76765C2.44616 9.9241 2.57317 10.0511 2.72962 10.0511H4.06746V10.9978H3.36737C3.21092 10.9978 3.08391 11.1248 3.08391 11.2813C3.08391 11.4377 3.21092 11.5647 3.36737 11.5647H4.06746V12.5114H3.36737C3.21092 12.5114 3.08391 12.6384 3.08391 12.7949C3.08391 12.9513 3.21092 13.0783 3.36737 13.0783H4.06746V14.4247H0.566912V0.566912H4.06746V1.91325Z" fill="black"/>
<path d="M7.87407 2.78058C8.03052 2.78058 8.15753 2.65357 8.15753 2.49712C8.15753 2.42962 8.13344 2.36415 8.08952 2.31284L7.21364 0.787883C7.13511 0.65248 6.96166 0.606536 6.82625 0.685066C6.78335 0.709657 6.74793 0.74538 6.72333 0.787883L5.81912 2.35544C5.74089 2.49085 5.78734 2.6644 5.92285 2.74253C5.96626 2.76752 6.01555 2.78088 6.06574 2.78058H6.6865V12.2193H6.06574C5.90929 12.2187 5.78168 12.3452 5.78117 12.5017C5.78087 12.5519 5.79412 12.6012 5.81912 12.6445L6.72333 14.212C6.80186 14.3474 6.97532 14.3934 7.11083 14.3149C7.15363 14.2903 7.18905 14.2545 7.21364 14.212L8.11786 12.6445C8.19608 12.5091 8.14963 12.3355 8.01413 12.2574C7.97071 12.2324 7.92143 12.219 7.87123 12.2193H7.25048V2.78058H7.87407ZM7.38376 12.7863L6.96996 13.5033L6.55605 12.7863H7.38376ZM6.55605 2.21367L6.96996 1.49657L7.38376 2.21367H6.55605Z" fill="black"/>
</svg>
