<svg width="20" height="15" viewBox="0 0 20 15" fill="none" xmlns="http://www.w3.org/2000/svg">
<path d="M14.865 12.4594L14.6196 12.362L14.3757 12.4632C13.0238 13.0247 11.4438 13.35 9.75 13.35C7.1782 13.35 4.87681 12.6006 3.23479 11.4217C1.59171 10.2421 0.65 8.67008 0.65 7C0.65 5.32992 1.59171 3.75791 3.23479 2.57826C4.87681 1.39938 7.1782 0.65 9.75 0.65C12.3218 0.65 14.6232 1.39938 16.2652 2.57826C17.9083 3.75791 18.85 5.32992 18.85 7C18.85 8.0735 18.4636 9.09826 17.7556 10.0086L17.5572 10.2638L17.6409 10.576L18.5369 13.918L14.865 12.4594Z" stroke="#E09B3D" stroke-width="1.3"/>
<path d="M6 6H7.5V7.5H6V6Z" fill="#E09B3D"/>
<path d="M9 6H10.5V7.5H9V6Z" fill="#E09B3D"/>
<path d="M12 6H13.5V7.5H12V6Z" fill="#E09B3D"/>
</svg>
