<svg width="40" height="40" viewBox="0 0 40 40" fill="none" xmlns="http://www.w3.org/2000/svg">
<circle cx="20.8693" cy="19.1307" r="17.3913" fill="white"/>
<path d="M25.9608 10.6418H14.0389C12.1361 10.6418 10.5879 12.1899 10.5879 14.0928V26.0147C10.5879 27.9176 12.1361 29.4662 14.0389 29.4662H25.9608C27.8637 29.4662 29.4123 27.918 29.4123 26.0147V14.0928C29.4123 12.1899 27.8641 10.6418 25.9608 10.6418ZM19.9999 26.2509C16.5831 26.2509 13.8032 23.4709 13.8032 20.0538C13.8032 16.637 16.5831 13.8571 19.9999 13.8571C23.4171 13.8571 26.197 16.637 26.197 20.0538C26.197 23.4705 23.4166 26.2509 19.9999 26.2509ZM26.3962 15.1383C25.5873 15.1383 24.9296 14.4806 24.9296 13.6722C24.9296 12.8638 25.5873 12.206 26.3962 12.206C27.2046 12.206 27.8623 12.8638 27.8623 13.6722C27.8623 14.4806 27.2046 15.1383 26.3962 15.1383Z" fill="url(#paint0_linear)"/>
<path d="M25.9608 10.6418H14.0389C12.1361 10.6418 10.5879 12.1899 10.5879 14.0928V26.0147C10.5879 27.9176 12.1361 29.4662 14.0389 29.4662H25.9608C27.8637 29.4662 29.4123 27.918 29.4123 26.0147V14.0928C29.4123 12.1899 27.8641 10.6418 25.9608 10.6418ZM19.9999 26.2509C16.5831 26.2509 13.8032 23.4709 13.8032 20.0538C13.8032 16.637 16.5831 13.8571 19.9999 13.8571C23.4171 13.8571 26.197 16.637 26.197 20.0538C26.197 23.4705 23.4166 26.2509 19.9999 26.2509ZM26.3962 15.1383C25.5873 15.1383 24.9296 14.4806 24.9296 13.6722C24.9296 12.8638 25.5873 12.206 26.3962 12.206C27.2046 12.206 27.8623 12.8638 27.8623 13.6722C27.8623 14.4806 27.2046 15.1383 26.3962 15.1383Z" fill="black"/>
<path d="M19.9999 16.476C18.0275 16.476 16.4214 18.0812 16.4214 20.0536C16.4214 22.0269 18.0275 23.6325 19.9999 23.6325C21.9732 23.6325 23.578 22.0269 23.578 20.0536C23.578 18.0816 21.9728 16.476 19.9999 16.476Z" fill="url(#paint1_linear)"/>
<path d="M19.9999 16.476C18.0275 16.476 16.4214 18.0812 16.4214 20.0536C16.4214 22.0269 18.0275 23.6325 19.9999 23.6325C21.9732 23.6325 23.578 22.0269 23.578 20.0536C23.578 18.0816 21.9728 16.476 19.9999 16.476Z" fill="black"/>
<path d="M20 0C8.95475 0 0 8.95475 0 20C0 31.0453 8.95475 40 20 40C31.0453 40 40 31.0453 40 20C40 8.95475 31.0453 0 20 0ZM32.0306 26.0148C32.0306 29.3621 29.3081 32.0845 25.9609 32.0845H14.0391C10.6923 32.0845 7.96943 29.3621 7.96943 26.0148V14.093C7.96943 10.7462 10.6923 8.02335 14.0391 8.02335H25.9609C29.3081 8.02335 32.0306 10.7462 32.0306 14.093V26.0148Z" fill="url(#paint2_linear)"/>
<path d="M20 0C8.95475 0 0 8.95475 0 20C0 31.0453 8.95475 40 20 40C31.0453 40 40 31.0453 40 20C40 8.95475 31.0453 0 20 0ZM32.0306 26.0148C32.0306 29.3621 29.3081 32.0845 25.9609 32.0845H14.0391C10.6923 32.0845 7.96943 29.3621 7.96943 26.0148V14.093C7.96943 10.7462 10.6923 8.02335 14.0391 8.02335H25.9609C29.3081 8.02335 32.0306 10.7462 32.0306 14.093V26.0148Z" fill="black"/>
<defs>
<linearGradient id="paint0_linear" x1="8.94076" y1="10.6418" x2="28.0005" y2="29.4662" gradientUnits="userSpaceOnUse">
<stop stop-color="#E09B3D"/>
<stop offset="1" stop-color="#D9B02E"/>
</linearGradient>
<linearGradient id="paint1_linear" x1="15.7952" y1="16.476" x2="23.0412" y2="23.6325" gradientUnits="userSpaceOnUse">
<stop stop-color="#E09B3D"/>
<stop offset="1" stop-color="#D9B02E"/>
</linearGradient>
<linearGradient id="paint2_linear" x1="-3.5" y1="-4.41447e-08" x2="37" y2="40" gradientUnits="userSpaceOnUse">
<stop stop-color="#E09B3D"/>
<stop offset="1" stop-color="#D9B02E"/>
</linearGradient>
</defs>
</svg>
